<svg xmlns="http://www.w3.org/2000/svg" width="47.227" height="47.136" viewBox="0 0 47.227 47.136">
  <g id="Group_6065" data-name="Group 6065" transform="translate(-46.33 -8.588)">
    <g id="Icon_Phone_Number" data-name="Icon Phone Number" transform="translate(46.83 9.088)">
      <g id="Group_400" data-name="Group 400">
        <path id="Path_2677" data-name="Path 2677" d="M196.78,1555.159a23.114,23.114,0,1,1-23.112-23.07A23.09,23.09,0,0,1,196.78,1555.159Z" transform="translate(-150.553 -1532.09)" stroke="rgba(0,0,0,0)" stroke-width="1"/>
        <g id="Group_399" data-name="Group 399" transform="translate(2.912 2.903)">
          <g id="Group_398" data-name="Group 398">
            <g id="Group_397" data-name="Group 397">
              <path id="Path_2678" data-name="Path 2678" d="M186.268,1539.114a.723.723,0,0,0-1.125.909,18.763,18.763,0,0,1-27.11,25.769.724.724,0,0,0-.966,1.078,20.207,20.207,0,0,0,29.2-27.755Z" transform="translate(-150.327 -1531.635)" fill="#fff" stroke="rgba(0,0,0,0)" stroke-width="1"/>
              <path id="Path_2679" data-name="Path 2679" d="M153.941,1554.218a18.786,18.786,0,0,1,31.295-13.972.732.732,0,0,0,1.023-.057.719.719,0,0,0-.059-1.02,20.205,20.205,0,0,0-29.2,27.755.723.723,0,0,0,1.127-.907,18.769,18.769,0,0,1-4.188-11.8Z" transform="translate(-152.494 -1534.029)" fill="#fff" stroke="rgba(0,0,0,0)" stroke-width="1"/>
            </g>
            <path id="Path_2680" data-name="Path 2680" d="M158.9,1544.312a2.63,2.63,0,0,1,.783-1.669l1.833-1.834a1.343,1.343,0,0,1,.906-.412,1.262,1.262,0,0,1,.89.425c.332.305.638.623.975.962.167.175.339.343.511.521l1.469,1.464a1.144,1.144,0,0,1,0,1.841c-.155.148-.306.305-.462.461-.455.461-.882.9-1.362,1.314a.056.056,0,0,1-.021.03.958.958,0,0,0-.243,1.091.236.236,0,0,1,.011.044,11.97,11.97,0,0,0,1.732,2.8,19.816,19.816,0,0,0,4.746,4.318c.213.133.442.242.654.35.2.1.38.193.542.3.021.006.037.018.051.022a1.011,1.011,0,0,0,.479.13,1.067,1.067,0,0,0,.734-.335l1.844-1.841a1.308,1.308,0,0,1,.9-.434,1.243,1.243,0,0,1,.876.434l2.971,2.961a1.185,1.185,0,0,1-.016,1.853c-.209.22-.423.43-.658.651-.345.338-.7.68-1.028,1.069a2.705,2.705,0,0,1-2.109.9c-.089,0-.177-.009-.258-.015a11.976,11.976,0,0,1-4.251-1.265,24.094,24.094,0,0,1-7.986-6.244,22.013,22.013,0,0,1-3.89-6.469A7.871,7.871,0,0,1,158.9,1544.312Z" transform="translate(-149.298 -1530.864)" fill="#fff" stroke="rgba(0,0,0,0)" stroke-width="1"/>
          </g>
        </g>
      </g>
      <path id="Path_2681" data-name="Path 2681" d="M190.017,1538.848a23.05,23.05,0,1,0,6.764,16.309,23,23,0,0,0-6.764-16.309Zm-1.029,31.609a21.6,21.6,0,1,1,6.348-15.3,21.55,21.55,0,0,1-6.348,15.3Z" transform="translate(-150.553 -1532.09)" fill="#fff" stroke="rgba(0,0,0,0)" stroke-width="1"/>
    </g>
  </g>
</svg>
