<svg xmlns="http://www.w3.org/2000/svg" width="47.224" height="47.138" viewBox="0 0 47.224 47.138">
  <g id="Icon_Email" data-name="Icon Email" transform="translate(0.5 0.5)">
    <g id="Group_408" data-name="Group 408">
      <path id="Path_2682" data-name="Path 2682" d="M514.9,1555.094a23.112,23.112,0,1,1-23.112-23.067A23.092,23.092,0,0,1,514.9,1555.094Z" transform="translate(-468.675 -1532.028)" stroke="rgba(0,0,0,0)" stroke-width="1"/>
      <g id="Group_407" data-name="Group 407" transform="translate(2.912 2.879)">
        <g id="Group_406" data-name="Group 406">
          <g id="Group_402" data-name="Group 402">
            <path id="Path_2683" data-name="Path 2683" d="M504.388,1539.04a.722.722,0,1,0-1.125.9,18.765,18.765,0,0,1-27.109,25.772.722.722,0,0,0-.965,1.075,20.2,20.2,0,0,0,29.2-27.751Z" transform="translate(-468.449 -1531.556)" fill="#fff" stroke="rgba(0,0,0,0)" stroke-width="1"/>
            <path id="Path_2684" data-name="Path 2684" d="M472.06,1554.139a18.786,18.786,0,0,1,31.3-13.969.735.735,0,0,0,1.022-.058.717.717,0,0,0-.06-1.02,20.207,20.207,0,0,0-29.2,27.757.748.748,0,0,0,.564.263.721.721,0,0,0,.565-1.172,18.761,18.761,0,0,1-4.19-11.8Z" transform="translate(-470.616 -1533.951)" fill="#fff" stroke="rgba(0,0,0,0)" stroke-width="1"/>
          </g>
          <path id="Path_2685" data-name="Path 2685" d="M496.591,1542.4l-9.325,9.307-9.412-9.307Z" transform="translate(-466.997 -1529.75)" fill="#fff" stroke="rgba(0,0,0,0)" stroke-width="1"/>
          <path id="Path_2686" data-name="Path 2686" d="M487.6,1552.43l-10.414-10.3h20.739Zm-8.4-9.476,8.4,8.309,8.327-8.309Z" transform="translate(-467.331 -1529.887)" stroke="rgba(0,0,0,0)" stroke-width="1"/>
          <g id="Group_403" data-name="Group 403" transform="translate(9.469 12.616)">
            <path id="Path_2687" data-name="Path 2687" d="M477.206,1556.184v-13.143l6.606,6.548Z" transform="translate(-476.79 -1542.049)" fill="#fff" stroke="rgba(0,0,0,0)" stroke-width="1"/>
            <path id="Path_2688" data-name="Path 2688" d="M476.929,1557.512v-15.134l7.61,7.541Zm.83-13.149v11.153l5.609-5.6Z" transform="translate(-476.929 -1542.378)" stroke="rgba(0,0,0,0)" stroke-width="1"/>
          </g>
          <g id="Group_404" data-name="Group 404" transform="translate(9.855 20.538)">
            <path id="Path_2689" data-name="Path 2689" d="M477.852,1554.653l6.613-6.593,2.323,2.291a.684.684,0,0,0,.961,0l2.259-2.258,6.582,6.56Z" transform="translate(-476.853 -1547.476)" fill="#fff" stroke="rgba(0,0,0,0)" stroke-width="1"/>
            <path id="Path_2690" data-name="Path 2690" d="M497.926,1555.26h-20.74l7.611-7.59,2.616,2.581a.273.273,0,0,0,.377,0l2.553-2.551Zm-18.742-.825h16.739l-5.58-5.563-1.967,1.963a1.124,1.124,0,0,1-1.549,0l-2.028-2Z" transform="translate(-477.186 -1547.67)" stroke="rgba(0,0,0,0)" stroke-width="1"/>
          </g>
          <g id="Group_405" data-name="Group 405" transform="translate(23.399 12.623)">
            <path id="Path_2691" data-name="Path 2691" d="M493.185,1556.18l-6.58-6.563,6.58-6.567Z" transform="translate(-486.02 -1542.052)" fill="#fff" stroke="rgba(0,0,0,0)" stroke-width="1"/>
            <path id="Path_2692" data-name="Path 2692" d="M493.794,1557.509l-7.579-7.562,7.579-7.564Zm-6.41-7.562,5.582,5.566v-11.135Z" transform="translate(-486.215 -1542.383)" stroke="rgba(0,0,0,0)" stroke-width="1"/>
          </g>
        </g>
      </g>
    </g>
    <path id="Path_2693" data-name="Path 2693" d="M508.135,1538.783A23.05,23.05,0,1,0,514.9,1555.1a23,23,0,0,0-6.764-16.315Zm-1.027,31.605a21.6,21.6,0,1,1,6.348-15.291,21.54,21.54,0,0,1-6.348,15.291Z" transform="translate(-468.675 -1532.028)" fill="#fff" stroke="rgba(0,0,0,0)" stroke-width="1"/>
  </g>
</svg>
