<svg id="Icon_LinkedIn" data-name="Icon LinkedIn" xmlns="http://www.w3.org/2000/svg" width="46.225" height="46.133" viewBox="0 0 46.225 46.133">
  <g id="Group_413" data-name="Group 413">
    <path id="Path_2694" data-name="Path 2694" d="M942.421,1555.121a23.113,23.113,0,1,1-23.115-23.066A23.091,23.091,0,0,1,942.421,1555.121Z" transform="translate(-896.195 -1532.055)"/>
    <g id="Group_412" data-name="Group 412" transform="translate(2.913 2.823)">
      <g id="Group_410" data-name="Group 410">
        <path id="Path_2695" data-name="Path 2695" d="M931.908,1539.029a.721.721,0,1,0-1.125.9,18.766,18.766,0,0,1-27.108,25.776.727.727,0,0,0-1.022.055.716.716,0,0,0,.057,1.015,20.2,20.2,0,0,0,29.2-27.748Z" transform="translate(-895.971 -1531.547)" fill="#fff"/>
        <path id="Path_2696" data-name="Path 2696" d="M899.578,1554.129a18.791,18.791,0,0,1,31.3-13.97.725.725,0,0,0,1.023-.058.711.711,0,0,0-.059-1.012,20.2,20.2,0,0,0-29.193,27.745.7.7,0,0,0,.561.268.716.716,0,0,0,.561-1.165A18.789,18.789,0,0,1,899.578,1554.129Z" transform="translate(-898.137 -1533.941)" fill="#fff"/>
      </g>
      <g id="Group_411" data-name="Group 411" transform="translate(10.584 9.261)">
        <rect id="Rectangle_204" data-name="Rectangle 204" width="4.272" height="12.818" transform="translate(0.251 6.175)" fill="#fff"/>
        <path id="Path_2697" data-name="Path 2697" d="M907.58,1544.555h-.027a2.438,2.438,0,1,1,.027,0Z" transform="translate(-905.193 -1540.127)" fill="#fff"/>
        <path id="Path_2698" data-name="Path 2698" d="M922.811,1557.17h-4.269v-6.858c0-1.725-.618-2.9-2.161-2.9a2.338,2.338,0,0,0-2.19,1.56,2.914,2.914,0,0,0-.14,1.041v7.157h-4.27s.057-11.614,0-12.819h4.27v1.816a4.237,4.237,0,0,1,3.848-2.114c2.807,0,4.913,1.831,4.913,5.767Z" transform="translate(-902.899 -1538.175)" fill="#fff"/>
      </g>
    </g>
  </g>
  <path id="Path_2699" data-name="Path 2699" d="M935.654,1538.813a23.041,23.041,0,1,0,6.766,16.309,22.994,22.994,0,0,0-6.766-16.309Zm-1.024,31.609a21.608,21.608,0,1,1,6.346-15.3,21.556,21.556,0,0,1-6.346,15.3Z" transform="translate(-896.195 -1532.055)" fill="#fff"/>
</svg>
