<svg id="Icon_Analyse" data-name="Icon Analyse" xmlns="http://www.w3.org/2000/svg" width="93" height="93" viewBox="0 0 93 93">
  <path id="Path_7990" data-name="Path 7990" d="M738.377,1287.618a46.5,46.5,0,1,1-46.5-46.5A46.5,46.5,0,0,1,738.377,1287.618Z" transform="translate(-645.377 -1241.119)"/>
  <g id="Group_1674" data-name="Group 1674" transform="translate(5.898 5.73)">
    <path id="Path_7991" data-name="Path 7991" d="M717.651,1255.235a1.46,1.46,0,1,0-2.277,1.827,38.008,38.008,0,0,1-54.863,52.263,1.46,1.46,0,1,0-1.95,2.174,40.927,40.927,0,0,0,59.09-56.264Z" transform="translate(-645.471 -1240.611)" fill="#fff"/>
    <path id="Path_7992" data-name="Path 7992" d="M652.229,1285.87a38.01,38.01,0,0,1,63.333-28.328,1.463,1.463,0,0,0,2.067-.118,1.439,1.439,0,0,0-.12-2.052,40.919,40.919,0,0,0-59.073,56.259,1.419,1.419,0,0,0,1.131.538,1.45,1.45,0,0,0,1.137-2.361A38.15,38.15,0,0,1,652.229,1285.87Z" transform="translate(-649.309 -1244.939)" fill="#fff"/>
  </g>
  <g id="Group_1675" data-name="Group 1675" transform="translate(22.748 27.953)">
    <path id="Path_7993" data-name="Path 7993" d="M663.069,1260.813a.88.88,0,0,1,.881-.877h3.519a.882.882,0,0,1,.882.877v21.555h-5.282Z" transform="translate(-659.552 -1259.936)" fill="#fff"/>
    <path id="Path_7994" data-name="Path 7994" d="M668.351,1285.74a.885.885,0,0,1-.882.882H663.95a.882.882,0,0,1-.881-.882v-4.984h5.282Z" transform="translate(-659.552 -1249.526)" fill="#fff"/>
    <path id="Path_7995" data-name="Path 7995" d="M673.039,1276.942v3.52a.878.878,0,0,1-.879.879H661.6a.879.879,0,0,1-.878-.879v-3.52a.878.878,0,0,1,.878-.878H672.16A.877.877,0,0,1,673.039,1276.942Z" transform="translate(-660.724 -1251.872)" fill="#fff"/>
    <path id="Path_7996" data-name="Path 7996" d="M674.8,1260.813a.881.881,0,0,1,.88-.877H679.2a.88.88,0,0,1,.88.877v12.756H674.8Z" transform="translate(-653.686 -1259.936)" fill="#fff"/>
    <path id="Path_7997" data-name="Path 7997" d="M680.078,1288.672a.882.882,0,0,1-.88.882h-3.518a.883.883,0,0,1-.88-.882v-13.781h5.279Z" transform="translate(-653.686 -1252.458)" fill="#fff"/>
    <path id="Path_7998" data-name="Path 7998" d="M684.77,1271.078v3.519a.881.881,0,0,1-.879.882H673.332a.881.881,0,0,1-.879-.882v-3.519a.88.88,0,0,1,.879-.879h10.559A.88.88,0,0,1,684.77,1271.078Z" transform="translate(-654.859 -1254.805)" fill="#fff"/>
    <path id="Path_7999" data-name="Path 7999" d="M686.528,1260.813a.881.881,0,0,1,.88-.877h3.519a.882.882,0,0,1,.882.877v18.915h-5.282Z" transform="translate(-647.822 -1259.936)" fill="#fff"/>
    <path id="Path_8000" data-name="Path 8000" d="M691.81,1286.62a.884.884,0,0,1-.882.882h-3.519a.883.883,0,0,1-.88-.882v-7.625h5.282Z" transform="translate(-647.822 -1250.406)" fill="#fff"/>
    <path id="Path_8001" data-name="Path 8001" d="M696.5,1278.7a.879.879,0,0,1-.879.881H685.061a.878.878,0,0,1-.877-.881v-3.517a.879.879,0,0,1,.877-.881H695.62a.881.881,0,0,1,.879.881Z" transform="translate(-648.994 -1252.752)" fill="#fff"/>
  </g>
</svg>
