<svg id="Icon_Refine" data-name="Icon Refine" xmlns="http://www.w3.org/2000/svg" width="93" height="92.998" viewBox="0 0 93 92.998">
  <path id="Path_8002" data-name="Path 8002" d="M985.818,1287.618a46.5,46.5,0,1,1-46.5-46.5A46.5,46.5,0,0,1,985.818,1287.618Z" transform="translate(-892.818 -1241.119)"/>
  <g id="Group_1677" data-name="Group 1677" transform="translate(5.899 5.73)">
    <path id="Path_8003" data-name="Path 8003" d="M965.091,1255.235a1.459,1.459,0,1,0-2.276,1.827,38.008,38.008,0,0,1-54.863,52.263A1.46,1.46,0,1,0,906,1311.5a40.927,40.927,0,0,0,59.088-56.264Z" transform="translate(-892.914 -1240.613)" fill="#fff"/>
    <path id="Path_8004" data-name="Path 8004" d="M899.668,1285.87a38.013,38.013,0,0,1,63.338-28.328,1.463,1.463,0,0,0,2.067-.118,1.444,1.444,0,0,0-.121-2.052,40.92,40.92,0,0,0-59.075,56.259,1.465,1.465,0,0,0,2.052.216,1.445,1.445,0,0,0,.218-2.038A38.144,38.144,0,0,1,899.668,1285.87Z" transform="translate(-896.751 -1244.939)" fill="#fff"/>
  </g>
  <g id="Group_1678" data-name="Group 1678" transform="translate(23.113 25.866)">
    <path id="Rectangle_916" data-name="Rectangle 916" d="M3.456,0h39.86a3.456,3.456,0,0,1,3.456,3.456V37.812a3.455,3.455,0,0,1-3.455,3.455H3.455A3.455,3.455,0,0,1,0,37.812V3.456A3.456,3.456,0,0,1,3.456,0Z" transform="translate(0)"/>
    <rect id="Rectangle_917" data-name="Rectangle 917" width="43.685" height="38.178" rx="2.427" transform="translate(1.544 1.544)" fill="#fff"/>
    <path id="Path_8005" data-name="Path 8005" d="M954.41,1267.3H909.182a.771.771,0,1,1,0-1.542H954.41a.771.771,0,1,1,0,1.542Z" transform="translate(-908.409 -1254.938)"/>
    <path id="Path_8006" data-name="Path 8006" d="M918.02,1265.954a2.444,2.444,0,1,1,2.443-2.445A2.448,2.448,0,0,1,918.02,1265.954Zm0-3.344a.9.9,0,1,0,.9.9A.9.9,0,0,0,918.02,1262.611Z" transform="translate(-904.826 -1257.284)"/>
    <path id="Path_8007" data-name="Path 8007" d="M913.014,1265.938a2.443,2.443,0,1,1,2.443-2.443A2.447,2.447,0,0,1,913.014,1265.938Zm0-3.344a.9.9,0,1,0,.9.9A.9.9,0,0,0,913.014,1262.594Z" transform="translate(-907.329 -1257.292)"/>
    <path id="Path_8008" data-name="Path 8008" d="M923.025,1265.969a2.443,2.443,0,1,1,2.445-2.443A2.448,2.448,0,0,1,923.025,1265.969Zm0-3.344a.9.9,0,1,0,.9.9A.9.9,0,0,0,923.025,1262.625Z" transform="translate(-902.323 -1257.276)"/>
    <path id="Path_8009" data-name="Path 8009" d="M922.637,1281.91a.765.765,0,0,1-.5-.183l-5-4.257a.773.773,0,0,1-.273-.588.786.786,0,0,1,.273-.588l5-4.254a.772.772,0,0,1,1,1.176l-4.308,3.666,4.308,3.666a.773.773,0,0,1,.085,1.089A.76.76,0,0,1,922.637,1281.91Z" transform="translate(-904.18 -1251.89)"/>
    <path id="Path_8010" data-name="Path 8010" d="M927.546,1281.91a.759.759,0,0,1-.588-.273.771.771,0,0,1,.087-1.089l4.307-3.666-4.307-3.666a.772.772,0,1,1,1-1.176l5,4.254a.773.773,0,0,1,0,1.176l-5,4.257A.771.771,0,0,1,927.546,1281.91Z" transform="translate(-899.227 -1251.89)"/>
    <path id="Path_8011" data-name="Path 8011" d="M923.078,1286.128a.691.691,0,0,1-.157-.017.77.77,0,0,1-.6-.915l3.114-14.784a.771.771,0,0,1,1.51.315l-3.113,14.787A.773.773,0,0,1,923.078,1286.128Z" transform="translate(-901.461 -1252.918)"/>
  </g>
</svg>
