<svg id="Icon_Discover" data-name="Icon Discover" xmlns="http://www.w3.org/2000/svg" width="93" height="93" viewBox="0 0 93 93">
  <path id="Path_7655" data-name="Path 7655" d="M243.5,1287.618a46.5,46.5,0,1,1-46.5-46.5A46.5,46.5,0,0,1,243.5,1287.618Z" transform="translate(-150.5 -1241.119)"/>
  <g id="Group_1656" data-name="Group 1656" transform="translate(5.9 5.73)">
    <path id="Path_7656" data-name="Path 7656" d="M222.774,1255.235a1.46,1.46,0,1,0-2.277,1.827,38.008,38.008,0,0,1-54.863,52.263,1.46,1.46,0,1,0-1.95,2.174,40.927,40.927,0,0,0,59.09-56.264Z" transform="translate(-150.595 -1240.611)" fill="#fff"/>
    <path id="Path_7657" data-name="Path 7657" d="M157.351,1285.87a38.011,38.011,0,0,1,63.335-28.328,1.463,1.463,0,0,0,2.067-.118,1.438,1.438,0,0,0-.12-2.052,40.919,40.919,0,0,0-59.073,56.259,1.419,1.419,0,0,0,1.131.538,1.45,1.45,0,0,0,1.137-2.361A38.151,38.151,0,0,1,157.351,1285.87Z" transform="translate(-154.433 -1244.939)" fill="#fff"/>
  </g>
  <g id="Group_1658" data-name="Group 1658" transform="translate(23.292 18.868)">
    <path id="Path_7658" data-name="Path 7658" d="M185.284,1273.491h-1.815v15.477h-1.714V1273.45c-.7,0-1.344.022-1.988,0a3.537,3.537,0,0,1-2.571-5.8,3.533,3.533,0,0,1,6.248,2.143c.021.625,0,1.251,0,1.916h1.809c0-.6-.007-1.162,0-1.731a3.545,3.545,0,1,1,3.869,3.464c-.683.042-1.371.007-2.135.007v15.522h-1.707Zm-3.549-1.767c0-.583,0-1.1,0-1.609a4.219,4.219,0,0,0-.018-.456,1.832,1.832,0,0,0-1.881-1.57,1.876,1.876,0,0,0-1.767,1.774,1.8,1.8,0,0,0,1.6,1.851C180.327,1271.761,180.993,1271.724,181.735,1271.724Zm5.247,0c.723,0,1.387.04,2.047-.008a1.82,1.82,0,0,0,1.611-1.9,1.879,1.879,0,0,0-1.811-1.729,1.815,1.815,0,0,0-1.842,1.675C186.955,1270.387,186.982,1271.017,186.982,1271.725Z" transform="translate(-161.146 -1247.632)" fill-rule="evenodd"/>
    <g id="Group_1657" data-name="Group 1657">
      <path id="Path_7659" data-name="Path 7659" d="M194.254,1295.344H178.94c-.142-1.844-.225-2.643,1.533-2.826a11.261,11.261,0,0,0-1.062-3.939,13.326,13.326,0,0,0-2.9-4.023,14.663,14.663,0,1,1,24.584-12.614,14.142,14.142,0,0,1-4.322,12.459,13.44,13.44,0,0,0-3.7,5.958c-.193.694-.306,1.408-.454,2.115C194.213,1292.783,194.375,1292.96,194.254,1295.344Zm-6.746-18.273v15.472h1.707v-15.522c.764,0,1.452.035,2.135-.007a3.537,3.537,0,1,0-3.869-3.464c-.007.569,0,1.135,0,1.731h-1.809c0-.665.016-1.29,0-1.916a3.533,3.533,0,0,0-6.248-2.143,3.537,3.537,0,0,0,2.571,5.8c.643.027,1.286,0,1.988,0v15.518h1.714v-15.477Z" transform="translate(-163.37 -1251.212)" fill="#fff" fill-rule="evenodd"/>
      <path id="Path_7660" data-name="Path 7660" d="M176.576,1286.982h15.333a13.513,13.513,0,0,1-.021,1.863,1.086,1.086,0,0,1-1,.891.847.847,0,0,1-.34.013,1.681,1.681,0,0,0-2.174,1.377,4.186,4.186,0,0,1-.338.665,1.405,1.405,0,0,1-1.339.812c-1.623,0-3.246,0-4.869,0a1.432,1.432,0,0,1-1.38-.842c-.257-.511-.548-1-.779-1.527a.691.691,0,0,0-.78-.491,7.464,7.464,0,0,1-1.086,0,1.205,1.205,0,0,1-1.247-1.219c-.018-.4-.006-.8,0-1.206C176.554,1287.231,176.564,1287.138,176.576,1286.982Z" transform="translate(-161.04 -1237.328)" fill="#fff" fill-rule="evenodd"/>
      <path id="Path_7661" data-name="Path 7661" d="M191.914,1284.487v1.966H176.576v-1.966Z" transform="translate(-161.027 -1238.575)" fill="#fff" fill-rule="evenodd"/>
      <path id="Path_7662" data-name="Path 7662" d="M190.788,1256.555a3.367,3.367,0,0,1-.165.532c-.447.8-.887,1.6-1.368,2.373a.809.809,0,0,1-1.145.288.822.822,0,0,1-.316-1.14,23.007,23.007,0,0,1,1.389-2.357,1.078,1.078,0,0,1,.918-.316C190.377,1255.994,190.59,1256.363,190.788,1256.555Z" transform="translate(-155.474 -1252.857)" fill="#fff" fill-rule="evenodd"/>
      <path id="Path_7663" data-name="Path 7663" d="M176.712,1259.2c-.141.165-.315.542-.572.609a1.076,1.076,0,0,1-.948-.231A17.67,17.67,0,0,1,173.72,1257c-.105-.222.093-.7.3-.93a.648.648,0,0,1,1.016.045c.588.881,1.085,1.826,1.616,2.744A1.7,1.7,0,0,1,176.712,1259.2Z" transform="translate(-162.469 -1252.894)" fill="#fff" fill-rule="evenodd"/>
      <path id="Path_7664" data-name="Path 7664" d="M168.384,1268.79c.437,0,.875-.016,1.311,0a.869.869,0,0,1,.877.867.858.858,0,0,1-.9.838q-1.285.025-2.568,0a.833.833,0,0,1-.892-.834.848.848,0,0,1,.916-.873C167.547,1268.779,167.967,1268.79,168.384,1268.79Z" transform="translate(-166.21 -1246.426)" fill="#fff" fill-rule="evenodd"/>
      <path id="Path_7665" data-name="Path 7665" d="M196.449,1270.507c-.436,0-.876.012-1.312,0a.854.854,0,1,1,0-1.707c.876-.018,1.751-.021,2.625,0a.83.83,0,0,1,.846.882.844.844,0,0,1-.846.825,1,1,0,0,1-.114,0Z" transform="translate(-152.192 -1246.428)" fill="#fff" fill-rule="evenodd"/>
      <path id="Path_7666" data-name="Path 7666" d="M169.061,1278.545c-.333-.279-.717-.448-.786-.7a1.072,1.072,0,0,1,.236-.948,17.307,17.307,0,0,1,2.564-1.475,1.039,1.039,0,0,1,.917.306c.16.192.183.8.038.906C171.1,1277.3,170.108,1277.885,169.061,1278.545Z" transform="translate(-165.19 -1243.122)" fill="#fff" fill-rule="evenodd"/>
      <path id="Path_7667" data-name="Path 7667" d="M172.229,1263.394c-.027.75-.653,1.177-1.191.9-.848-.433-1.669-.914-2.474-1.422a.84.84,0,0,1,.854-1.44c.827.426,1.634.9,2.418,1.4C172.047,1262.968,172.148,1263.273,172.229,1263.394Z" transform="translate(-165.217 -1250.154)" fill="#fff" fill-rule="evenodd"/>
      <path id="Path_7668" data-name="Path 7668" d="M196.492,1277.38c.013.784-.6,1.226-1.188.93a27.627,27.627,0,0,1-2.464-1.429.751.751,0,0,1-.209-1.11.767.767,0,0,1,1.089-.307c.819.442,1.629.9,2.415,1.4C196.333,1276.989,196.423,1277.278,196.492,1277.38Z" transform="translate(-153.077 -1243.144)" fill="#fff" fill-rule="evenodd"/>
      <path id="Path_7669" data-name="Path 7669" d="M196.492,1262.365a2.075,2.075,0,0,1-.475.582c-.7.458-1.434.863-2.166,1.265a.858.858,0,1,1-.855-1.479c.717-.43,1.437-.855,2.173-1.25C195.822,1261.13,196.479,1261.487,196.492,1262.365Z" transform="translate(-153.071 -1250.144)" fill="#fff" fill-rule="evenodd"/>
      <path id="Path_7670" data-name="Path 7670" d="M182.823,1256.081c0,.418.016.843,0,1.261a.823.823,0,0,1-.837.9.808.808,0,0,1-.855-.872c-.026-.859-.024-1.719,0-2.58a.852.852,0,0,1,.834-.907.871.871,0,0,1,.862.94C182.838,1255.24,182.823,1255.662,182.823,1256.081Z" transform="translate(-158.761 -1253.879)" fill="#fff" fill-rule="evenodd"/>
      <path id="Path_7671" data-name="Path 7671" d="M181.158,1271.153c-.743,0-1.409.038-2.067-.01a1.8,1.8,0,0,1-1.6-1.851,1.876,1.876,0,0,1,1.767-1.774,1.832,1.832,0,0,1,1.881,1.57,4.219,4.219,0,0,1,.018.456C181.161,1270.055,181.158,1270.569,181.158,1271.153Z" transform="translate(-160.569 -1247.061)" fill="#fff" fill-rule="evenodd"/>
      <path id="Path_7672" data-name="Path 7672" d="M183.437,1271.154c0-.708-.027-1.338.006-1.964a1.815,1.815,0,0,1,1.842-1.676,1.879,1.879,0,0,1,1.811,1.729,1.82,1.82,0,0,1-1.611,1.9C184.825,1271.195,184.16,1271.154,183.437,1271.154Z" transform="translate(-157.601 -1247.061)" fill="#fff" fill-rule="evenodd"/>
    </g>
  </g>
</svg>
