<svg id="Icon_Ideate" data-name="Icon Ideate" xmlns="http://www.w3.org/2000/svg" width="93" height="92.998" viewBox="0 0 93 92.998">
  <path id="Path_7971" data-name="Path 7971" d="M490.935,1287.617a46.5,46.5,0,1,1-46.5-46.5A46.5,46.5,0,0,1,490.935,1287.617Z" transform="translate(-397.935 -1241.119)"/>
  <g id="Group_1671" data-name="Group 1671" transform="translate(5.9 5.73)">
    <path id="Path_7972" data-name="Path 7972" d="M470.21,1255.235a1.46,1.46,0,1,0-2.277,1.827,38.008,38.008,0,0,1-54.863,52.263,1.46,1.46,0,1,0-1.95,2.174,40.927,40.927,0,0,0,59.09-56.264Z" transform="translate(-398.031 -1240.613)" fill="#fff"/>
    <path id="Path_7973" data-name="Path 7973" d="M404.786,1285.87a38.012,38.012,0,0,1,63.336-28.328,1.463,1.463,0,0,0,2.067-.118,1.442,1.442,0,0,0-.12-2.052,40.92,40.92,0,0,0-59.075,56.259,1.465,1.465,0,0,0,2.052.216,1.444,1.444,0,0,0,.217-2.038A38.144,38.144,0,0,1,404.786,1285.87Z" transform="translate(-401.868 -1244.939)" fill="#fff"/>
  </g>
  <g id="Group_1672" data-name="Group 1672" transform="translate(20.988 18.026)">
    <path id="Path_7974" data-name="Path 7974" d="M460.978,1284.531c-1.06-3.815-2.136-6.833-2.145-6.865a.852.852,0,0,0-.8-.562h-2.96l2.121-4.925a2.551,2.551,0,0,0-1.155-3.4l-7.163-3.583a2.552,2.552,0,0,0-3.42,1.141l-.013.024-3.569,7.726V1263.5a.857.857,0,0,0-.063-.316h0l-3.4-8.505a.852.852,0,0,0-1.58,0l-3.4,8.505h0a.856.856,0,0,0-.063.316v2.352l-6.041-12.088a.853.853,0,0,0-1.117-.39l-11.055,5.1a.853.853,0,0,0-.417,1.133l.012.022,8.739,17.477H417.5l-3.175-2.381a.851.851,0,0,0-1.022,1.361l2.907,2.181c-.365,1.059-1.156,3.444-1.938,6.267a48.9,48.9,0,0,0-2.159,12.132c0,2.146.508,5.044,2.928,6.658a5.947,5.947,0,0,0,3.024,1h39.12a5.947,5.947,0,0,0,3.024-1c2.419-1.614,2.928-4.512,2.928-6.658A48.933,48.933,0,0,0,460.978,1284.531Z" transform="translate(-412.109 -1253.293)"/>
    <path id="Path_7975" data-name="Path 7975" d="M451.787,1275.969h-34l.168-1.7h33.668Z" transform="translate(-409.272 -1242.804)" fill="#fff"/>
    <rect id="Rectangle_915" data-name="Rectangle 915" width="1.701" height="3.404" transform="translate(11.907 34.865)" fill="#fff"/>
    <path id="Path_7976" data-name="Path 7976" d="M418.15,1276.536h1.866v4.254a.851.851,0,0,0,.851.849h3.4a.849.849,0,0,0,.849-.849v-4.254H452.5l1.444,14.459H416.7Z" transform="translate(-409.811 -1241.671)" fill="#fff"/>
    <path id="Path_7977" data-name="Path 7977" d="M451.334,1274.552H418.009l.425-4.252h32.476Z" transform="translate(-409.159 -1244.789)" fill="#fff"/>
    <path id="Path_7978" data-name="Path 7978" d="M432.213,1260.533l-2.322,1.163-2.322-1.163.857-2.139h2.93Z" transform="translate(-404.379 -1250.742)" fill="#fff"/>
    <path id="Path_7979" data-name="Path 7979" d="M432.272,1271.608l3.387-7.326,5.369,2.639-2.128,4.688Z" transform="translate(-402.028 -1247.798)" fill="#fff"/>
    <path id="Path_7980" data-name="Path 7980" d="M431.386,1273.242h-1.7v-11.38l1.7-.849Z" transform="translate(-403.322 -1249.432)" fill="#fff"/>
    <path id="Path_7981" data-name="Path 7981" d="M429.118,1261.862v11.38h-1.7v-12.229Z" transform="translate(-404.455 -1249.432)" fill="#fff"/>
    <path id="Path_7982" data-name="Path 7982" d="M437.935,1270.478l1.789-3.937,1.881.927-1.3,3.011Z" transform="translate(-399.196 -1246.669)" fill="#fff"/>
    <path id="Path_7983" data-name="Path 7983" d="M441.963,1265.3a.854.854,0,0,1-.048.651c-.006.013-.012.029-.018.045l-.45,1.04-1.849-.906.848-1.865,1.091.546a.854.854,0,0,1,.427.489Z" transform="translate(-398.365 -1247.805)" fill="#fff"/>
    <path id="Path_7984" data-name="Path 7984" d="M436.668,1262.272l4.548,2.277-.85,1.875-5.359-2.638.526-1.138a.853.853,0,0,1,1.135-.375Z" transform="translate(-400.66 -1248.847)" fill="#fff"/>
    <path id="Path_7985" data-name="Path 7985" d="M429.379,1255.953l.785,1.961h-1.57Z" transform="translate(-403.867 -1251.963)" fill="#fff"/>
    <path id="Path_7986" data-name="Path 7986" d="M429.306,1268.994v4.016l-9.07-17.539,1.876-.867Z" transform="translate(-408.046 -1252.637)" fill="#fff"/>
    <path id="Path_7987" data-name="Path 7987" d="M421.235,1255.657l10.479,20.264h-7.839l-.066-.131,1.62-.808a.851.851,0,1,0-.762-1.522l-1.62.808-.939-1.879,3.321-1.657a.852.852,0,0,0-.762-1.524l-3.321,1.662-.939-1.879,1.62-.81a.851.851,0,0,0-.76-1.523l-1.62.812-.94-1.882,3.321-1.659a.851.851,0,0,0-.76-1.523l-3.321,1.664-.94-1.884,1.621-.809a.85.85,0,1,0-.763-1.519l-1.619.807-1.1-2.195Z" transform="translate(-410.591 -1252.111)" fill="#fff"/>
    <path id="Path_7988" data-name="Path 7988" d="M413.242,1288.159c0-5.75,3.18-15.432,4.008-17.859h1.857l-2.369,23.692a4.442,4.442,0,0,1-1.323-.588C413.974,1292.445,413.242,1290.677,413.242,1288.159Z" transform="translate(-411.543 -1244.789)" fill="#fff"/>
    <path id="Path_7989" data-name="Path 7989" d="M444.837,1293.361a4.3,4.3,0,0,1-1.386.63l-2.369-23.691h1.857c.829,2.427,4.008,12.108,4.008,17.859C446.947,1290.64,446.235,1292.392,444.837,1293.361Z" transform="translate(-397.622 -1244.789)" fill="#fff"/>
  </g>
</svg>
