<svg xmlns="http://www.w3.org/2000/svg" width="93" height="92.998" viewBox="1339.001 1317.709 93 92.998"><g data-name="Icon Refine"><path d="M1432.001 1364.207c0 25.68-20.82 46.5-46.502 46.5-25.679 0-46.498-20.82-46.498-46.5s20.82-46.498 46.498-46.498c25.683 0 46.502 20.819 46.502 46.498Z" fill-rule="evenodd" data-name="Path 8002"/><g data-name="Group 1677"><path d="M1417.078 1338.06a1.454 1.454 0 0 0-2.057-.225c-.631.521-.729 1.439-.219 2.053a38.129 38.129 0 0 1 8.477 23.935c0 10.152-3.956 19.692-11.13 26.877-7.18 7.175-16.721 11.121-26.876 11.121a37.944 37.944 0 0 1-25.334-9.67 1.468 1.468 0 0 0-2.065.115 1.456 1.456 0 0 0 .115 2.058 40.882 40.882 0 0 0 27.284 10.427c10.933 0 21.214-4.26 28.944-11.98 7.725-7.733 11.982-18.02 11.982-28.948 0-9.363-3.24-18.51-9.121-25.762Z" fill="#fff" fill-rule="evenodd" data-name="Path 8003"/><path d="M1347.818 1364.37c0-20.96 17.05-37.993 38.001-37.993a37.93 37.93 0 0 1 25.337 9.665c.601.54 1.525.484 2.067-.119a1.444 1.444 0 0 0-.122-2.052 40.826 40.826 0 0 0-27.282-10.432c-10.926 0-21.208 4.257-28.933 11.982-7.737 7.741-11.986 18.022-11.986 28.948 0 9.363 3.233 18.51 9.127 25.762.288.366.709.538 1.132.538.32 0 .651-.099.92-.323.627-.499.721-1.422.217-2.038a38.144 38.144 0 0 1-8.478-23.939Z" fill="#fff" fill-rule="evenodd" data-name="Path 8004"/></g><g data-name="Group 4986"><g data-name="Group 4985"><path d="M1398.613 1342.925c-.09.306-.111.456-.178.578-.486.86-.962 1.728-1.482 2.569-.291.47-.803.568-1.242.312a.89.89 0 0 1-.343-1.234c.468-.87.939-1.747 1.505-2.553.171-.242.692-.41.995-.344.3.064.53.464.745.672Z" fill="#fff" fill-rule="evenodd" data-name="Path 24159"/><path d="M1375.79 1345.747c-.153.178-.342.587-.62.659-.309.083-.867-.024-1.027-.251a19.275 19.275 0 0 1-1.595-2.785c-.115-.24.1-.76.326-1.005.305-.339.852-.324 1.099.047.637.955 1.175 1.976 1.75 2.973.028.05.024.122.067.362Z" fill="#fff" fill-rule="evenodd" data-name="Path 24160"/><path d="M1367.956 1353.261c-.028.812-.706 1.278-1.29.979a34.266 34.266 0 0 1-2.678-1.54c-.444-.281-.505-.75-.253-1.2.265-.474.731-.59 1.176-.36.898.461 1.77.973 2.62 1.515.229.147.338.474.425.606Z" fill="#fff" fill-rule="evenodd" data-name="Path 24161"/><path d="M1407.394 1352.158c-.1.129-.254.46-.516.63-.758.495-1.552.932-2.344 1.368-.553.305-1.076.172-1.348-.295-.27-.465-.118-.981.421-1.305a55.433 55.433 0 0 1 2.355-1.355c.706-.382 1.419.005 1.432.957Z" fill="#fff" fill-rule="evenodd" data-name="Path 24162"/><path d="M1386.425 1341.305c-.002.455.017.913-.005 1.366-.03.622-.368.964-.906.97-.54.01-.908-.335-.927-.944a52.708 52.708 0 0 1-.003-2.792c.015-.596.394-.975.903-.984.53-.008.91.39.935 1.018.019.454.003.914.003 1.366Z" fill="#fff" fill-rule="evenodd" data-name="Path 24163"/><g data-name="Group 4984"><path d="M1398.613 1385.221c-.09-.306-.111-.456-.178-.578-.486-.86-.962-1.727-1.482-2.57-.291-.47-.803-.568-1.242-.312a.89.89 0 0 0-.343 1.234c.468.87.939 1.747 1.505 2.553.171.242.692.409.995.344.3-.063.53-.464.745-.67Z" fill="#fff" fill-rule="evenodd" data-name="Path 24164"/><path d="M1375.79 1382.4c-.153-.181-.342-.587-.62-.661-.309-.081-.867.024-1.027.251a19.404 19.404 0 0 0-1.595 2.784c-.115.242.1.76.326 1.007.305.34.852.323 1.099-.049.637-.954 1.175-1.976 1.75-2.97.028-.052.024-.123.067-.363Z" fill="#fff" fill-rule="evenodd" data-name="Path 24165"/><path d="M1362.716 1365.001c.473-.001.948.018 1.42-.004.566-.028.96-.438.95-.939-.008-.511-.401-.9-.975-.909a73.44 73.44 0 0 0-2.783 0c-.585.009-.956.38-.967.903-.01.55.376.924.994.945.454.016.909.004 1.361.004Z" fill="#fff" fill-rule="evenodd" data-name="Path 24166"/><path d="M1408.3 1363.142c-.473 0-.95-.013-1.422.006-.57.02-.964.414-.964.922 0 .504.395.914.964.925.949.02 1.896.024 2.843-.001.57-.018.936-.429.919-.955-.017-.501-.374-.85-.919-.893-.04-.004-.082-.004-.124-.004h-1.297Z" fill="#fff" fill-rule="evenodd" data-name="Path 24167"/><path d="M1367.956 1374.886c-.028-.813-.706-1.28-1.29-.981-.917.47-1.806.99-2.678 1.54-.444.281-.505.75-.253 1.2.265.474.731.59 1.176.36.898-.461 1.77-.973 2.62-1.514.229-.146.338-.476.425-.605Z" fill="#fff" fill-rule="evenodd" data-name="Path 24168"/><path d="M1407.394 1375.988c-.1-.129-.254-.46-.516-.63-.758-.496-1.552-.934-2.344-1.37-.553-.304-1.076-.171-1.348.296-.27.464-.118.981.421 1.305.776.467 1.557.928 2.355 1.355.706.382 1.419-.006 1.432-.956Z" fill="#fff" fill-rule="evenodd" data-name="Path 24169"/><path d="M1386.425 1386.84c-.002-.455.017-.913-.005-1.366-.03-.62-.368-.965-.906-.97-.54-.008-.908.335-.927.944a52.76 52.76 0 0 0-.003 2.793c.015.594.394.975.903.985.53.007.91-.392.935-1.02.019-.454.003-.914.003-1.366Z" fill="#fff" fill-rule="evenodd" data-name="Path 24170"/></g></g><path d="m1396.043 1358.958-.212-.033a4.982 4.982 0 0 0-.459-.059l-1.269-.086c-1.622-.11-3.243-.219-4.865-.313-.573-1.471-1.16-2.931-1.747-4.393l-.493-1.228c-.054-.135-.116-.27-.19-.429l-.101-.22-1.217-2.689-1.21 2.692-.096.216c-.068.147-.124.269-.175.394l-.519 1.293c-.582 1.453-1.166 2.908-1.738 4.365-1.583.09-3.163.197-4.741.302l-1.297.087a7.35 7.35 0 0 0-.486.05l-.235.03-2.94.34 2.208 1.973.17.153c.112.103.202.184.294.26l1.051.877c1.22 1.018 2.44 2.037 3.669 3.045-.429 1.642-.842 3.281-1.258 4.922l-.278 1.098a4.75 4.75 0 0 0-.083.42l-.03.188-.533 2.968 2.551-1.608 1.663-1.048a606.089 606.089 0 0 0 4.022-2.544c1.267.813 2.538 1.61 3.807 2.41l1.284.808c.112.07.226.137.368.22l.248.146 2.601 1.542-.621-2.96-.048-.241a7.204 7.204 0 0 0-.09-.4l-.289-1.15c-.4-1.589-.802-3.18-1.21-4.767.739-.6 1.47-1.211 2.2-1.822l.776-.649 1.378-1.153.802-.671 2.278-1.905-2.94-.431Zm-10.546 9.563c-.134.001-.265.051-.42.15.155-.099.286-.149.42-.15Z" fill="#fff" fill-rule="evenodd" data-name="Path 24171"/></g></g></svg>