<svg xmlns="http://www.w3.org/2000/svg" width="93" height="93" viewBox="226.001 1317.709 93 93"><g data-name="Icon Sprint"><path d="M319.001 1364.208c0 25.68-20.82 46.5-46.5 46.5s-46.5-20.82-46.5-46.5 20.82-46.5 46.5-46.5 46.5 20.82 46.5 46.5Z" fill-rule="evenodd" data-name="Path 7655"/><g data-name="Group 1656"><path d="M304.079 1338.062a1.454 1.454 0 0 0-2.057-.225c-.631.52-.729 1.438-.22 2.052a38.122 38.122 0 0 1 8.478 23.935c0 10.153-3.956 19.693-11.129 26.878-7.18 7.174-16.723 11.12-26.877 11.12a37.95 37.95 0 0 1-25.335-9.67 1.468 1.468 0 0 0-2.065.116 1.459 1.459 0 0 0 .115 2.058 40.884 40.884 0 0 0 27.285 10.426c10.934 0 21.212-4.26 28.944-11.98 7.724-7.733 11.982-18.02 11.982-28.948 0-9.362-3.24-18.51-9.121-25.762Z" fill="#fff" fill-rule="evenodd" data-name="Path 7656"/><path d="M234.818 1364.37c0-20.96 17.049-37.993 38.001-37.993 9.363 0 18.37 3.426 25.334 9.665.606.54 1.527.484 2.067-.119a1.438 1.438 0 0 0-.12-2.052 40.828 40.828 0 0 0-27.28-10.432c-10.927 0-21.211 4.257-28.933 11.982-7.739 7.741-11.987 18.022-11.987 28.948 0 9.363 3.235 18.51 9.126 25.762.288.366.709.538 1.132.538.319 0 .652-.099.92-.323.628-.499.722-1.422.217-2.038a38.151 38.151 0 0 1-8.477-23.939Z" fill="#fff" fill-rule="evenodd" data-name="Path 7657"/></g><g data-name="Group 4982"><g data-name="Group 4980"><path d="M258.659 1371.054h-8.129v5.448h12.44a13.587 13.587 0 0 1-4.312-5.448Z" fill="#fff" fill-rule="evenodd" data-name="Path 24149"/><path d="m297.031 1373.777-7.665-8.172v5.45h-18.218a5.449 5.449 0 1 1 0-10.899 5.449 5.449 0 0 1 4.718 8.172h5.836c.224-.87.345-1.782.345-2.723 0-6.02-4.88-10.9-10.9-10.9-6.018 0-10.898 4.88-10.898 10.9 0 1.985.531 3.846 1.457 5.45a10.898 10.898 0 0 0 9.442 5.447h18.218v5.451l7.665-8.176Z" fill="#fff" fill-rule="evenodd" data-name="Path 24150"/></g><g data-name="Group 4981"><path d="M283.96 1347.386c-.082.281-.1.418-.162.53-.446.79-.883 1.587-1.36 2.36-.267.432-.737.521-1.14.286a.816.816 0 0 1-.315-1.134c.43-.798.86-1.603 1.38-2.343.158-.222.637-.374.914-.314.276.058.486.425.683.615Z" fill="#fff" fill-rule="evenodd" data-name="Path 24151"/><path d="M263.011 1349.975c-.139.166-.313.54-.567.607-.284.075-.797-.022-.942-.23a17.638 17.638 0 0 1-1.466-2.557c-.104-.22.094-.696.3-.923.28-.31.783-.297 1.008.043.586.877 1.08 1.815 1.606 2.73.026.046.023.111.061.33Z" fill="#fff" fill-rule="evenodd" data-name="Path 24152"/><path d="M255.821 1356.875c-.025.745-.647 1.172-1.184.897a31.443 31.443 0 0 1-2.458-1.412c-.408-.258-.464-.689-.232-1.102.243-.435.67-.541 1.08-.331a30.36 30.36 0 0 1 2.404 1.39c.21.136.31.437.39.558Z" fill="#fff" fill-rule="evenodd" data-name="Path 24153"/><path d="M292.023 1355.862c-.094.118-.236.422-.474.578-.697.454-1.426.857-2.152 1.258-.507.278-.988.156-1.237-.273-.248-.425-.11-.901.386-1.198a49.851 49.851 0 0 1 2.161-1.243c.648-.351 1.303.005 1.316.878Z" fill="#fff" fill-rule="evenodd" data-name="Path 24154"/><path d="M272.773 1345.9c-.001.417.017.838-.004 1.254-.028.571-.337.886-.83.89-.496.01-.835-.307-.852-.866a48.774 48.774 0 0 1-.002-2.564c.012-.546.361-.895.828-.904.486-.006.835.36.857.937.018.416.003.838.003 1.253Z" fill="#fff" fill-rule="evenodd" data-name="Path 24155"/></g></g></g></svg>