<?xml version="1.0" encoding="utf-8"?>
<!-- Generator: Adobe Illustrator 16.0.0, SVG Export Plug-In . SVG Version: 6.00 Build 0)  -->
<!DOCTYPE svg PUBLIC "-//W3C//DTD SVG 1.1//EN" "http://www.w3.org/Graphics/SVG/1.1/DTD/svg11.dtd">
<svg version="1.1" xmlns="http://www.w3.org/2000/svg" xmlns:xlink="http://www.w3.org/1999/xlink" x="0px" y="0px"
	 width="245.131px" height="256px" viewBox="0 0 245.131 256" enable-background="new 0 0 245.131 256" xml:space="preserve">
<g id="Capa_1" display="none">
	<g display="inline">
		<path fill="#FEFEFE" d="M349.33,13.021c1.383,0.602,0.624,1.808,0.627,2.676c0.059,14.047,0.042,28.094,0.042,42.142
			c0,98.219-0.011,196.439,0.062,294.659c0.002,2.508-0.559,3.117-3.073,3.078c-10.589-0.162-21.182-0.068-31.773-0.068
			c-0.053-2.572,2.436-3.328,3.589-5.039c2.026-2.02,4.157-3.936,5.96-6.173c4.669-4.234,8.984-8.825,13.452-13.263
			c1.939-1.77,3.664-3.747,5.452-5.662c5.845-3.435,5.03-8.986,4.701-14.902c-2.193,2.294-4.264,4.11-6.291,5.975
			c-4.736,5.174-10.368,9.429-15.038,14.67c-3.946,4.05-8.242,7.761-11.814,12.173c-0.164,0.264-0.351,0.509-0.549,0.746
			c-1.842,1.85-3.54,3.851-5.671,5.396c-2.557,1.609-3.541,4.902-6.5,6.079c-8.027,0-16.054,0-24.081,0
			c-1.258-1.55-1.202-3.544-1.605-5.326c-0.973-4.306-4.09-7.555-5.388-11.666c0.372-1.78,1.864-2.72,3.02-3.877
			c21-21.042,42.036-42.047,63.036-63.087c2.128-2.042,4.204-4.136,6.245-6.266c5.457-3.594,5.257-8.962,4.532-14.776
			c-2.059,2.053-4.269,3.663-6.16,5.642c-1.498,2.025-3.419,3.656-5.122,5.491c-22.414,22.332-44.74,44.751-67.146,67.092
			c-1.231,1.228-2.229,2.85-4.212,3.088c-2.428-0.604-3.641-2.795-5.419-4.234c-6.216-5.029-12.874-9.376-19.825-13.296
			c-0.945-0.534-2.069-0.887-2.429-2.107c-0.086-0.992,0.477-1.702,1.104-2.337c9.408-9.506,18.869-18.958,28.371-28.37
			c0.871-0.863,1.838-1.704,3.246-1.067c3.057,3.232,5.008,7.283,7.903,10.651c1.394,1.619,3.3,2.89,3.937,4.421
			c-1.927-6.123-3.455-13.02-4.596-20.003c-0.216-1.319-0.457-2.624-0.037-3.942c0.635-1.484,1.902-2.444,2.995-3.539
			c18.868-18.896,37.77-37.763,56.627-56.67c2.166-2.005,4.16-4.176,6.149-6.353c5.834-3.387,5.111-8.933,4.688-14.692
			c-2.267,1.928-4.132,4.07-6.438,5.677c-1.663,1.826-3.124,3.833-4.949,5.513c-17.997,17.928-35.924,35.926-53.898,53.876
			c-0.63,0.63-1.252,1.27-1.894,1.889c-3.086,2.975-3.478,2.861-4.764-1.363c-0.598-10.045,1.117-19.754,5.293-28.829
			c4.203-9.135,7.366-18.528,9.287-28.368c0.186-0.673,0.504-1.28,0.921-1.836c14.009-14.176,28.178-28.198,42.234-42.333
			c2.537-2.432,4.995-4.945,7.462-7.448c1.505-1.317,2.699-2.932,4.114-4.334c2.113-1.457,3.008-3.434,2.82-6.018
			c-0.151-2.083,0.025-4.187-0.081-6.688c-2.022,1.406-3.729,2.564-4.955,4.311c-0.815,1.124-1.753,2.136-2.777,3.067
			c-0.22,0.202-0.461,0.378-0.708,0.544c-0.892,0.503-1.648,1.153-2.18,2.048c-1.222,1.752-2.871,3.111-4.291,4.683
			c-11.703,11.667-23.364,23.372-35.058,35.046c-0.784,0.783-1.531,1.611-2.463,2.229c-1.05,0.695-1.866,0.61-2.265-0.745
			c-0.872-4.241,0.26-8.416,0.387-12.622c0.294-9.69-0.486-19.319-1.562-28.933c-0.087-0.773-0.219-1.542-0.16-2.318
			c0.217-1.962,1.754-3.03,2.994-4.272c13.773-13.799,27.564-27.582,41.344-41.375c1.891-1.779,3.703-3.641,5.521-5.497
			c1.433-1.387,2.839-2.796,4.196-4.256c1.989-1.582,2.139-3.77,2.028-6.059c-0.09-1.876,0.128-3.762-0.13-5.887
			c-1.233,0.543-2.032,1.421-2.871,2.236c-1.902,2.625-5.082,3.947-6.836,6.724c-0.711,1.026-1.571,1.923-2.431,2.822
			c-13.824,13.786-27.594,27.625-41.442,41.386c-1.089,1.083-1.939,2.886-4.055,2.235c-0.751-0.587-1.002-1.444-1.226-2.307
			c-2.578-9.914-5.962-19.513-11.017-28.469c-0.382-0.677-0.638-1.417-0.717-2.202c-0.12-2.33,1.634-3.548,3.021-4.938
			c18.868-18.897,37.757-37.775,56.631-56.665c1.894-1.785,3.711-3.647,5.53-5.508c1.241-1.202,2.458-2.427,3.617-3.709
			c1.412-1.289,1.917-2.91,1.897-4.786C348.459,15.493,348.291,14.109,349.33,13.021z"/>
		<path fill-rule="evenodd" clip-rule="evenodd" fill="#FEFEFE" d="M6.844,168.879c0-15.831,0-31.662,0-47.493
			c1.472-2.881,4.287-4.603,6.155-7.143c2.065-1.968,4.336-3.734,5.979-6.118c1.676-2.588,4.423-4.036,6.545-6.163
			C49.83,77.588,74.181,53.258,98.53,28.926c1.183-1.182,2.248-2.471,3.427-3.653c2.369-1.702,3.988-4.151,6.074-6.135
			c2.617-1.774,4.279-4.672,7.177-6.116c19.176,0,38.351,0,57.527,0c-0.721,2.499-3.124,1.05-4.529,1.942
			c-3.165,0.808-6.465,1.037-9.542,2.22c-17.714,4.92-28.901,16.43-34.206,33.88c-0.254,0.611-0.575,1.182-1.032,1.667
			c-3.347,2.225-7.144,3.608-10.592,5.658c-15.941,9.477-27.908,22.625-36.289,39.111c-0.756,1.488-1.441,3.013-2.277,4.462
			c-0.436,0.674-0.985,1.251-1.538,1.827c-17.008,16.959-33.966,33.971-50.959,50.945c-0.867,0.866-1.708,1.752-2.366,2.793
			c-0.452,0.623-0.979,1.179-1.513,1.729c-2.031,1.993-4.04,4.009-6.026,6.05C10.159,166.448,9.408,168.941,6.844,168.879z"/>
		<path fill-rule="evenodd" clip-rule="evenodd" fill="#FEFEFE" d="M62.364,355.508c-16.054,0-32.108,0-48.162,0
			c-0.445-1.478,0.919-2.094,1.468-3.1c1.376-1.351,2.903-2.543,4.186-3.994c1.839-1.789,3.652-3.604,5.429-5.456
			c14.888-14.838,29.719-29.732,44.603-44.574c1.312-1.309,2.462-2.984,4.714-2.676c2.513-0.104,4.354-1.638,6.177-3.066
			c5.17-4.053,9.13-9.092,11.857-15.086c0.961-1.365,0.621-3.983,3.426-3.583c2.479,4.978,3.504,10.56,6.422,15.369
			c1.032,1.701,1.871,3.524,2.999,5.175c0.845-6.03,0.588-12.19,2.32-18.119c2.135-7.309,4.134-7.892,9.498-2.676
			c5.607,5.452,7.833,11.997,6.53,19.725c-0.613,1.629-1.967,2.667-3.137,3.838c-15.25,15.268-30.509,30.526-45.764,45.788
			c-0.899,0.861-1.802,1.721-2.833,2.431C68.404,348.401,66.075,352.628,62.364,355.508z"/>
		<path fill-rule="evenodd" clip-rule="evenodd" fill="#FEFEFE" d="M6.844,349.487c0-15.831,0-31.662,0-47.493
			c1.66-3.141,4.755-5.025,6.823-7.81c1.912-1.743,3.82-3.491,5.576-5.398c16.912-16.851,33.747-33.775,50.676-50.606
			c1.238-1.23,2.209-3.294,4.626-2.47c3.365,4.564,4.561,10.016,6.098,15.287c2.191,7.517,2.481,15.243,1.881,23.017
			c-0.115,0.52-0.331,0.994-0.66,1.411c-18.866,18.45-37.359,37.282-56.062,55.904c-2.127,2.117-4.431,4.074-6.189,6.541
			c-0.163,0.264-0.351,0.509-0.548,0.747c-1.658,1.771-3.413,3.446-5.101,5.189c-1.297,1.231-2.524,2.54-3.924,3.662
			C9.002,348.184,8.573,349.871,6.844,349.487z"/>
		<path fill-rule="evenodd" clip-rule="evenodd" fill="#FEFEFE" d="M55.006,13.021c15.831,0,31.662,0,47.493,0
			c0.056,2.566-2.426,3.321-3.579,5.025c-2.056,1.971-4.045,4.009-6.05,6.033c-0.771,0.741-1.516,1.511-2.379,2.151
			c-1.339,0.833-2.4,1.981-3.501,3.083C65.496,50.806,44.001,72.3,22.508,93.795c-1.102,1.101-2.247,2.166-3.081,3.502
			c-0.261,0.383-0.559,0.736-0.875,1.073c-2.232,2.235-4.478,4.458-6.681,6.725c-1.709,1.146-2.462,3.642-5.028,3.582
			c0-15.831,0-31.662,0-47.493c1.012-2.038,2.774-3.436,4.292-5.044c1.379-1.327,2.727-2.686,4.058-4.061
			c1.605-1.564,3.188-3.148,4.739-4.768c7.108-7.069,14.185-14.168,21.256-21.272c2.204-1.879,3.915-4.233,5.984-6.243
			C50.033,17.827,51.85,14.648,55.006,13.021z"/>
		<path fill-rule="evenodd" clip-rule="evenodd" fill="#FEFEFE" d="M6.844,289.285c0-15.832,0-31.662,0-47.493
			c1.721-3.121,4.667-5.14,6.963-7.744c2.204-2.279,4.679-4.302,6.546-6.903c1.767-2.656,4.598-4.178,6.791-6.397
			c9.788-9.91,19.673-19.727,29.523-29.576c0.631-0.631,1.248-1.275,1.898-1.885c2.672-2.507,3.038-2.429,4.539,0.935
			c1.492,7.389,2.363,14.883,4.125,22.228c1.008,4.205,2.539,8.27,3.246,12.545c0.104,2.431-1.661,3.771-3.138,5.249
			c-16.192,16.214-32.401,32.411-48.594,48.623c-2.112,1.997-4.142,4.082-6.18,6.156C10.594,286.357,9.706,289.149,6.844,289.285z"
			/>
		<path fill-rule="evenodd" clip-rule="evenodd" fill="#FEFEFE" d="M295.816,13.021c15.831,0,31.662,0,47.493,0
			c0.382,1.726-1.289,2.152-2.005,3.185c-1.036,1.236-2.139,2.411-3.33,3.499c-0.214,0.193-0.447,0.363-0.688,0.521
			c-0.872,0.491-1.607,1.13-2.125,2.003c-0.671,1-1.509,1.855-2.33,2.725c-18.698,18.681-37.366,37.391-56.083,56.05
			c-1.202,1.199-2.183,2.946-4.357,2.582c-1.059-0.464-1.731-1.348-2.399-2.232c-5.169-6.85-11.296-12.717-18.213-17.779
			c-1.152-0.844-2.425-1.582-3.011-3.001c-0.025-1.816,1.43-2.688,2.493-3.758c8.947-8.996,17.91-17.976,26.917-26.913
			c1.74-1.726,3.228-3.676,5.012-5.351c2.337-1.684,4.159-3.912,6.214-5.894C291.536,16.775,293.207,14.363,295.816,13.021z"/>
		<path fill-rule="evenodd" clip-rule="evenodd" fill="#FEFEFE" d="M6.844,229.082c0-15.831,0-31.662,0-47.493
			c1.447-2.895,4.333-4.562,6.108-7.177c2.04-2.065,4.381-3.815,6.283-6.028c14.085-14.021,28.104-28.108,42.17-42.147
			c0.863-0.862,1.674-1.789,2.691-2.478c0.965-0.654,1.856-0.858,2.274,0.62c0.153,0.668,0.182,1.344,0.031,1.998
			c-3.558,15.397-4.667,31.025-4.445,46.781c0.006,0.443-0.067,0.888-0.135,1.323c-0.359,1.762-1.732,2.806-2.902,3.978
			c-13.387,13.403-26.786,26.796-40.173,40.198c-1.892,1.784-3.71,3.646-5.528,5.507C10.988,225.665,10.024,228.813,6.844,229.082z"
			/>
		<path fill-rule="evenodd" clip-rule="evenodd" fill="#371C06" d="M168.084,14.369c1.312-1.27,3.425,0.219,4.651-1.348
			c0.446,0,0.892,0,1.338,0c0.413,0.451,0.963,0.315,1.474,0.345c0.632-0.068,1.326,0.197,1.871-0.345c3.567,0,7.136,0,10.703,0
			c0.736,0.638,1.623,0.224,2.434,0.345c0.542-0.042,1.134,0.142,1.579-0.345c0.446,0,0.892,0,1.338,0
			c4.801,0.741,9.728,0.57,14.419,2.139c2.955,0.988,5.969,1.792,8.724,3.295c0.275,0.222,0.451,0.51,0.53,0.854
			c-0.029,0.979-0.697,1.601-1.316,2.222c-6.718,6.754-13.441,13.501-20.211,20.203c-0.553,0.546-1.147,1.046-1.9,1.319
			c-0.525,0.186-1.068,0.265-1.621,0.306c-4.135,0.502-8.203-0.649-12.3-0.531c-9.433,0.274-18.868,0.636-28.199,2.266
			c-1.961,0.342-3.912,0.876-5.933,0.689c-1.771-0.487-1.567-1.582-0.8-2.788c0.599-0.943,1.45-1.676,2.233-2.46
			c6.588-6.595,13.181-13.184,19.771-19.776c0.706-0.706,1.439-1.388,2.086-2.15C170.942,16.27,170.867,15.925,168.084,14.369z"/>
		<path fill-rule="evenodd" clip-rule="evenodd" fill="#FCC06E" d="M182.77,355.508c-12.264,0-24.527,0-36.791,0
			c-2.168-2.809-1.542-6.083-1.55-9.249c0.057-1.785,1.039-3.087,2.238-4.288c5.699-5.711,11.395-11.425,17.125-17.104
			c0.84-0.834,1.634-1.868,3.065-1.655c2.753,2.128,4.334,5.022,5.249,8.297c1.768,6.329,3.787,12.586,5.513,18.927
			c0.232,0.854,0.542,1.796,0.986,0.056c1.064-4.094,2.401-8.112,3.222-12.253c1.243-6.27,4.403-11.558,8.025-16.675
			c1.396-1.974,2.77-2.114,4.774-0.974c2.798,1.592,5.657,3.078,8.477,4.637c3.757,2.076,4.169,1.916,6.12-1.788
			c0.83-1.574,1.67-3.145,2.767-4.55c0.55-0.703,1.213-1.516,2.029-0.209c0.401,0.985,0.344,1.991,0.14,3.003
			c-0.401,2.514-1.758,4.422-3.566,6.182c-4.919,4.783-9.726,9.682-14.571,14.537c-1.374,1.247-2.587,2.676-4.133,3.731
			C188.49,348.91,186.234,352.798,182.77,355.508z"/>
		<path fill-rule="evenodd" clip-rule="evenodd" fill="#4D423E" d="M125.242,355.508c-5.351,0-10.703,0-16.054,0
			c-1.191-1.438-0.515-2.97-0.185-4.46c2.864-12.922,5.726-25.845,8.774-38.726c0.306-1.097,0.952-1.962,1.816-2.679
			c4.139-2.787,8.593-4.918,13.387-6.328c1.149-0.338,2.293-0.882,3.513-0.239c1.474,5.348,5.478,9.517,6.943,14.876
			c0.363,4.765,0.869,9.512,1.335,14.263c0.003,0.529-0.091,1.042-0.287,1.532c-5.541,5.225-10.927,10.612-16.202,16.114
			C126.704,351.508,125.353,353.137,125.242,355.508z"/>
		<path fill-rule="evenodd" clip-rule="evenodd" fill="#FEFEFE" d="M235.614,13.021c15.831,0,31.661,0,47.493,0
			c0.368,1.63-0.944,2.256-1.896,3.032c-1.007,0.821-2.051,1.583-2.765,2.694c-1.427,1.978-3.279,3.556-4.961,5.297
			c-0.333,0.324-0.694,0.612-1.075,0.878c-5.242,4.272-9.604,9.451-14.508,14.071c-4.576,4.312-8.593,9.203-13.585,13.086
			c-0.328,0.042-0.641-0.009-0.939-0.149c-1.933-2.387-2.379-5.449-3.557-8.167c-2.854-6.595-7.198-11.942-12.418-16.712
			c-0.81-0.74-1.79-1.345-2.23-2.433c0.021-3.633,3.476-4.77,5.202-7.167C232.078,15.926,233.497,14.06,235.614,13.021z"/>
		<path fill-rule="evenodd" clip-rule="evenodd" fill="#4D423E" d="M247.654,355.508c-12.263,0-24.527,0-36.79,0
			c-1.272-1.519-1.13-3.355-0.917-5.088c0.379-3.081,0.501-6.181,0.827-9.262c1.102-2.625-0.273-5.619,1.194-8.188
			c3.011,0.903,3.011,0.903,5.89-1.975c5.5-5.497,10.962-11.034,16.53-16.462c0.969-0.945,1.795-2.849,3.793-1.562
			c2.32,4.861,2.834,10.205,4.071,15.348c1.713,7.116,3.275,14.269,4.904,21.405C247.414,351.644,248.422,353.501,247.654,355.508z"
			/>
		<path fill-rule="evenodd" clip-rule="evenodd" fill="#FCC06E" d="M118.555,312.165c-2.984,13.471-5.973,26.94-8.943,40.414
			c-0.212,0.961-0.286,1.952-0.424,2.929c-10.48,0-20.96,0-31.439,0c-1.374-1.885-0.917-3.776-0.03-5.669
			c0.176-0.29,0.404-0.543,0.666-0.76c1.548-0.881,2.961-1.93,4.234-3.208c9.432-9.47,18.888-18.916,28.346-28.361
			c0.79-0.788,1.612-1.545,2.005-2.635C114.525,313.343,115.951,311.537,118.555,312.165z"/>
		<path fill-rule="evenodd" clip-rule="evenodd" fill="#FEFEFE" d="M6.844,48.474c0-11.207,0.041-22.415-0.046-33.622
			c-0.012-1.57,0.307-1.89,1.878-1.877c11.206,0.087,22.414,0.046,33.621,0.046c-0.272,3.11-3.073,4.239-4.898,6.087
			c-1.21,1.226-2.751,2.129-3.737,3.608c-0.529,0.764-1.124,1.475-1.767,2.145c-4.413,4.387-8.799,8.8-13.192,13.206
			c-1.624,1.532-3.182,3.133-4.752,4.722c-1.176,1.121-2.319,2.275-3.445,3.448C9.318,47.037,8.742,48.843,6.844,48.474z"/>
		<path fill-rule="evenodd" clip-rule="evenodd" fill="#FCC06E" d="M271.686,338.142c3.3,5.38,6.869,10.655,6.739,17.366
			c-8.027,0-16.054,0-24.081,0c-0.368-1.694,1.082-2.183,2.022-2.965c1.259-1.047,2.372-2.235,3.532-3.38
			c1.862-1.777,3.667-3.612,5.465-5.456c1.891-1.797,3.685-3.687,5.457-5.601C271.115,337.95,271.403,337.963,271.686,338.142z"/>
		<path fill-rule="evenodd" clip-rule="evenodd" fill="#4A3F3C" d="M125.242,355.508c-0.742-1.361-1.041-2.669,0.25-3.928
			c5.765-5.625,11.011-11.774,17.131-17.041c0.307-0.264,0.813-0.295,1.227-0.434c1.987,3.312,2.118,6.83,1.147,10.463
			c0.124,1.355-0.685,2.193-1.584,3.062c-2.836,2.738-5.639,5.511-8.806,7.878C131.485,355.508,128.364,355.508,125.242,355.508z"/>
		<path fill-rule="evenodd" clip-rule="evenodd" fill="#FCC06D" d="M211.595,340.939c0.287,4.883-1.204,9.676-0.73,14.568
			c-5.574,0-11.149,0-16.724,0c-0.366-1.702,1.093-2.189,2.036-2.977c1.263-1.053,2.382-2.247,3.544-3.399
			c1.897-1.826,3.758-3.689,5.572-5.603c1.396-1.36,2.693-2.823,4.196-4.067c0.556-0.46,1.234-1.147,1.986-0.598
			C212.192,339.389,211.866,340.224,211.595,340.939z"/>
		<path fill-rule="evenodd" clip-rule="evenodd" fill="#F8F8F8" d="M78.593,349.558c-1.126,1.863-0.628,3.957-0.844,5.95
			c-5.128,0-10.257,0-15.385,0c2.579-4.043,5.737-7.577,9.367-10.7c1.054,1.275-0.603,2.146-0.485,3.404
			C73.527,349.407,76.435,347.606,78.593,349.558z"/>
		<path fill-rule="evenodd" clip-rule="evenodd" fill="#FDFDFD" d="M216.689,19.128c-7.295-2.782-14.725-5.002-22.577-5.505
			c-0.226-0.014-0.428-0.393-0.641-0.602c9.812,0,19.622,0,29.433,0c0.345,1.972-1.521,2.577-2.353,3.825
			C219.308,17.678,218.709,19.612,216.689,19.128z"/>
		<path fill-rule="evenodd" clip-rule="evenodd" fill="#F7F7F7" d="M32.934,22.388c2.627-3.616,6.957-5.529,9.362-9.366
			c4.237,0,8.473,0,12.709,0c-2.181,2.725-4.628,5.183-7.359,7.357c-4.373-0.549-8.78-1.404-12.601,1.874
			C34.463,22.752,33.681,23.026,32.934,22.388z"/>
		<path fill-rule="evenodd" clip-rule="evenodd" fill="#F5BB6B" d="M200.161,349.487c-1.361,2.652-4.414,3.613-6.021,6.021
			c-3.79,0-7.58,0-11.371,0c2.281-3.88,5.47-6.973,8.696-10.032c-0.273,2.73,1.02,3.461,3.601,3.203
			C196.75,348.512,198.643,348.136,200.161,349.487z"/>
		<path fill-rule="evenodd" clip-rule="evenodd" fill="#F8F8F8" d="M6.844,229.082c2.006-1.784,4.013-3.568,6.019-5.353
			c1.674,2.167,0.716,4.706,0.977,7.07c0.133,1.208,0.395,2.407,0.363,3.634c-2.177,2.729-4.633,5.178-7.358,7.358
			C6.844,237.556,6.844,233.318,6.844,229.082z"/>
		<path fill-rule="evenodd" clip-rule="evenodd" fill="#F8F8F8" d="M6.844,289.285c1.783-1.562,3.567-3.123,5.35-4.684
			c1.636,1.093,1.488,2.828,1.593,4.465c0.12,1.858-0.145,3.744,0.414,5.569c-2.174,2.73-4.632,5.178-7.357,7.358
			C6.844,297.758,6.844,293.521,6.844,289.285z"/>
		<path fill-rule="evenodd" clip-rule="evenodd" fill="#F8F8F8" d="M6.844,108.677c1.561-1.338,3.121-2.676,4.682-4.014
			c1.535,0.664,1.521,2.081,1.559,3.397c0.064,2.22,0.186,4.431,0.447,6.635c-1.951,2.508-4.188,4.732-6.688,6.691
			C6.844,117.15,6.844,112.913,6.844,108.677z"/>
		<path fill-rule="evenodd" clip-rule="evenodd" fill="#F5BB6B" d="M260.364,349.487c-1.361,2.652-4.414,3.613-6.021,6.021
			c-2.229,0-4.46,0-6.689,0c-0.413-1.786-0.827-3.572-1.24-5.357c1.062-1.499,2.007-3.106,3.453-4.276
			c0.754-0.609,1.405-1.845,2.708-0.877c-0.614,3.614-0.614,3.578,3.43,3.661C257.486,348.688,259.095,348.262,260.364,349.487z"/>
		<path fill-rule="evenodd" clip-rule="evenodd" fill="#F8F8F8" d="M98.484,17.702c1.338-1.56,2.677-3.121,4.015-4.681
			c4.236,0,8.473,0,12.709,0c-1.959,2.5-4.183,4.737-6.69,6.688c-2.078-0.495-4.2-0.303-6.302-0.428
			C100.802,19.197,99.243,19.37,98.484,17.702z"/>
		<path fill-rule="evenodd" clip-rule="evenodd" fill="#F8F8F8" d="M13.532,174.898c-1.952,2.508-4.188,4.731-6.688,6.69
			c0-4.236,0-8.473,0-12.709c1.56-1.338,3.121-2.677,4.681-4.015c1.668,0.759,1.495,2.318,1.579,3.732
			C13.229,170.698,13.037,172.821,13.532,174.898z"/>
		<path fill-rule="evenodd" clip-rule="evenodd" fill="#F9F9F9" d="M277.759,18.374c1.135-2.431,4.21-2.924,5.349-5.353
			c4.236,0,8.473,0,12.709,0c-1.739,2.274-3.744,4.283-6.021,6.021c-2.943-0.48-5.904-0.442-8.87-0.315
			C279.855,18.773,278.735,19.186,277.759,18.374z"/>
		<path fill-rule="evenodd" clip-rule="evenodd" fill="#4D423E" d="M134.607,355.508c2.39-3.736,6.164-6.106,9.145-9.261
			c0.297-0.313,0.628-0.596,0.944-0.893c0.309-0.105,0.476,0.015,0.52,0.328c-0.091,3.302,0.318,6.564,0.764,9.825
			C142.188,355.508,138.398,355.508,134.607,355.508z"/>
		<path fill-rule="evenodd" clip-rule="evenodd" fill="#F8F8F8" d="M319.229,350.825c-1.338,1.561-2.676,3.122-4.014,4.683
			c-4.236,0-8.473,0-12.709,0c2.098-2.147,3.493-4.928,6.021-6.687c1.879,1.119,3.967,0.995,6.036,1.068
			C316.158,349.946,317.873,349.534,319.229,350.825z"/>
		<path fill-rule="evenodd" clip-rule="evenodd" fill="#FBFBFB" d="M340.635,15.698c0.802-0.982,2.211-1.357,2.675-2.677
			c2.007,0,4.014,0,6.021,0c-0.443,3.25,1.502,7.182-2.676,9.365C345.029,19.813,342.475,18.078,340.635,15.698z"/>
		<path fill-rule="evenodd" clip-rule="evenodd" fill="#FBFBFB" d="M6.844,349.487c1.319-0.464,1.695-1.873,2.677-2.675
			c2.265,1.967,4.166,4.338,6.688,6.019c-0.669,0.892-1.337,1.784-2.006,2.677c-0.446,0-0.892,0-1.338,0
			c-2.006,0-4.796,0.783-5.8-0.22C6.061,354.284,6.844,351.494,6.844,349.487z"/>
		<path fill-rule="evenodd" clip-rule="evenodd" fill="#F9F9F9" d="M220.229,16.365c0.892-1.114,1.783-2.229,2.676-3.344
			c4.236,0,8.474,0,12.71,0c-1.293,1.829-2.854,3.39-4.683,4.683C227.405,16.926,223.623,18.198,220.229,16.365z"/>
		<path fill-rule="evenodd" clip-rule="evenodd" fill="#F9F9F9" d="M6.844,48.474c1.115-0.892,2.229-1.785,3.344-2.676
			c1.588,1.94,0.797,4.25,0.962,6.402c0.11,1.436,0.222,2.87,0.377,4.302c-1.293,1.829-2.854,3.389-4.683,4.682
			C6.844,56.947,6.844,52.71,6.844,48.474z"/>
		<path fill-rule="evenodd" clip-rule="evenodd" fill="#6F5C4C" d="M190.845,13.597c-0.958,0.045-1.986,0.418-2.724-0.576
			c0.892,0,1.783,0,2.675,0c0.204,0.112,0.278,0.234,0.226,0.368C190.966,13.528,190.907,13.597,190.845,13.597z"/>
		<path fill-rule="evenodd" clip-rule="evenodd" fill="#766455" d="M177.418,13.021c-0.478,0.87-1.278,0.671-2.036,0.617
			c-0.2-0.147-0.262-0.287-0.188-0.421c0.073-0.13,0.145-0.196,0.216-0.196C176.08,13.021,176.749,13.021,177.418,13.021z"/>
		<path fill-rule="evenodd" clip-rule="evenodd" fill="#908176" d="M190.845,13.597c-0.031-0.19-0.047-0.382-0.049-0.576
			c0.446,0,0.893,0,1.338,0C191.955,13.776,191.386,13.655,190.845,13.597z"/>
		<path fill-rule="evenodd" clip-rule="evenodd" fill="#9B8D83" d="M175.411,13.021c0.021,0.207,0.012,0.413-0.029,0.617
			c-0.55,0.037-1.178,0.238-1.309-0.617C174.52,13.021,174.965,13.021,175.411,13.021z"/>
		<path fill-rule="evenodd" clip-rule="evenodd" fill="#4C2D19" d="M293.209,136.098c2.212,15.341,2.173,30.742,1.237,46.167
			c0.628,0.629,0.289,1.189-0.118,1.748c-15.45,15.114-30.587,30.546-45.923,45.778c-0.868,0.861-1.675,1.797-2.742,2.434
			c-0.984,0.586-1.688,0.424-1.979-0.785c0.136-6.685,1.357-13.306,1.043-20.01c-0.067-1.444,0.056-2.9-0.423-4.302
			c-0.401-6.471-1.27-12.895-2.078-19.317c-0.006-0.352,0.044-0.702,0.133-1.042c0.54-1.534,1.823-2.485,2.911-3.576
			c13.578-13.599,27.165-27.188,40.763-40.767c2.42-2.417,4.929-4.75,6.589-7.806C293.5,134.843,293.603,135.372,293.209,136.098z"
			/>
		<path fill-rule="evenodd" clip-rule="evenodd" fill="#4C2D19" d="M278.385,92.047c5.637,10.587,9.762,21.754,12.772,33.348
			c0.385,0.398,0.4,0.858,0.225,1.351c-15.707,15.405-31.114,31.114-46.779,46.562c-1.364,1.347-1.688,3.351-3.33,4.406
			c-1.448-0.802-1.047-2.429-1.632-3.62c-2.431-11.807-5.636-23.411-9.141-34.936c-0.107-0.511-0.094-1.019,0.071-1.517
			c14.798-14.708,29.514-29.504,44.293-44.237c0.779-0.777,1.522-1.642,2.721-1.805C277.92,91.626,278.187,91.776,278.385,92.047z"
			/>
		<path fill-rule="evenodd" clip-rule="evenodd" fill="#4C2D19" d="M291.754,198.315c-1.405,9.611-4.306,18.744-8.563,27.478
			c-4.724,9.691-6.298,20.032-5.988,30.722c0.338,1.154,0.201,2.362,0.393,3.532c-3.157,4.434-7.004,8.188-11.366,11.432
			c-0.369-0.006-0.668-0.152-0.903-0.435c-1.403-2.688-2.04-5.654-3.067-8.483c-2.79-10.886-3.396-21.944-2.673-33.106
			c0.166-0.78,0.582-1.412,1.175-1.952c9.439-8.587,18.097-17.967,27.257-26.836C289.07,199.646,289.851,198.043,291.754,198.315z"
			/>
		<path fill-rule="evenodd" clip-rule="evenodd" fill="#F1F1F1" d="M271.686,338.142c-0.196-0.031-0.391-0.066-0.584-0.107
			c-2.233-1.599-3.959-3.687-5.615-5.842c-0.065-0.325,0.027-0.592,0.3-0.789c0.907-0.812,1.856-1.584,2.716-2.444
			c21.719-21.703,43.426-43.418,65.146-65.12c0.938-0.937,1.977-1.771,2.969-2.654c1.441-0.029,1.891,1.086,2.035,2.122
			c0.404,2.894,0.876,5.834-0.693,8.585c-0.566,0.678-1.085,1.404-1.706,2.026c-20.835,20.853-41.679,41.695-62.531,62.53
			C273.099,337.069,272.366,337.58,271.686,338.142z"/>
		<path fill-rule="evenodd" clip-rule="evenodd" fill="#F1F1F1" d="M278.385,92.047c-0.172-0.063-0.349-0.108-0.53-0.134
			c-2.491-1.755-3.337-4.725-5.157-6.976c-0.275-0.547-0.723-1.086-0.12-1.695c1.516-0.138,2.224-1.405,3.143-2.322
			c17.979-17.948,35.938-35.919,53.911-53.873c0.938-0.938,1.98-1.774,2.975-2.657c4.105,0.268,5.961,2.587,5.353,6.691
			c-0.882,0.993-1.715,2.034-2.651,2.971c-18.165,18.184-36.346,36.353-54.507,54.541C279.805,89.59,278.459,90.387,278.385,92.047z
			"/>
		<path fill-rule="evenodd" clip-rule="evenodd" fill="#F1F1F1" d="M277.027,260.531c0.059-1.339,0.116-2.678,0.175-4.017
			c0.272,0.698,0.545,1.396,0.847,2.167c1.307-0.214,1.892-1.385,2.7-2.191c17.646-17.604,35.264-35.236,52.898-52.852
			c0.938-0.937,1.978-1.772,2.97-2.654c1.469-0.132,2.001,0.914,2.112,2.017c0.298,2.93,0.825,5.914-0.771,8.688
			c-0.568,0.679-1.088,1.406-1.711,2.03c-18.596,18.613-37.199,37.217-55.812,55.812c-0.622,0.622-1.359,1.129-2.043,1.689
			c-0.607-0.168-0.994-0.571-1.219-1.146C276.984,266.897,275.92,263.73,277.027,260.531z"/>
		<path fill-rule="evenodd" clip-rule="evenodd" fill="#482B18" d="M291.754,198.315c-9.142,9.045-18.289,18.083-27.416,27.144
			c-1.188,1.179-2.363,2.339-3.959,2.957c-0.407-0.087-0.804-0.06-1.183,0.12c-0.624,0.429-0.893,1.107-1.238,1.731
			c-4.505,7.09-9.988,13.301-16.582,18.519c-0.44,0.349-0.893,0.659-1.469,0.732c-2.093-0.543-1.387-1.972-0.816-3.094
			c1.512-2.98,2.196-6.229,3.248-9.358c0.693-1.538,0.244-3.579,2.027-4.639c3.572-3.48,7.181-6.926,10.712-10.447
			c12.023-11.991,24.018-24.014,36.038-36.008c0.854-0.853,1.836-1.576,2.758-2.359c1.614,4.675,0.113,9.019-1.412,13.36
			C292.226,197.422,291.99,197.868,291.754,198.315z"/>
		<path fill-rule="evenodd" clip-rule="evenodd" fill="#F1F1F1" d="M291.067,126.739c0.029-0.448,0.06-0.896,0.09-1.344
			c2.871-2.767,5.784-5.494,8.608-8.309c11.164-11.13,22.297-22.292,33.455-33.428c0.856-0.855,1.815-1.61,2.727-2.412
			c0.476-0.046,0.987,0.118,1.057,0.55c0.544,3.369,1.895,6.726,0.285,10.156c-1.748,1.858-3.448,3.763-5.249,5.568
			c-12.026,12.055-24.071,24.092-36.12,36.124c-0.861,0.86-1.806,1.638-2.711,2.453c-0.222-0.498-0.443-0.997-0.664-1.495
			C291.258,132.13,290.397,129.579,291.067,126.739z"/>
		<path fill-rule="evenodd" clip-rule="evenodd" fill="#F1F1F1" d="M292.462,196.974c0.471-4.453,0.941-8.906,1.412-13.36
			c0.191-0.449,0.381-0.898,0.572-1.349c2.73-2.611,5.495-5.187,8.186-7.84c10.227-10.086,20.429-20.196,30.641-30.298
			c2.32-0.58,2.555,1.229,2.797,2.666c0.473,2.815,0.019,5.539-1.455,8.039c-2.53,2.642-5.017,5.327-7.599,7.917
			c-10.588,10.625-21.201,21.225-31.819,31.82C294.338,195.424,293.375,196.175,292.462,196.974z"/>
		<path fill-rule="evenodd" clip-rule="evenodd" fill="#FCC06E" d="M265.786,331.403c0.016,0.204,0.041,0.405,0.076,0.606
			c-2.803,4.335-7.031,7.334-10.405,11.134c-0.971,0.682-1.558,2.093-3.119,1.663c-2.567,1.124-3.246,4.342-5.924,5.344
			c-2.709-11.751-5.415-23.503-8.137-35.251c-0.173-0.746-0.469-1.464-0.707-2.196c-0.181-0.25-0.188-0.507-0.022-0.769
			c0.283-0.148,0.519-0.094,0.706,0.167C248.115,317.56,257.515,323.678,265.786,331.403z"/>
		<path fill-rule="evenodd" clip-rule="evenodd" fill="#F1F1F1" d="M238.254,312.102l-0.259,0.003l-0.259-0.002
			c-2.659-1.231-4.979-3.025-7.495-4.497c-0.173-0.266-0.254-0.557-0.234-0.875c0.77-1.687,2.324-2.752,3.364-4.228
			c0.698-0.523,1.491-0.931,2.03-1.655c4.593-4.846,9.524-9.36,13.933-14.384c2.462,2.832,0.512,6.103,1.143,8.604
			c-0.412,0.943,0.479,0.582,0.033,0.611c-0.11,0.008-0.151-0.122-0.018-0.317c4.012-5.872,6.183-12.626,9.11-19.019
			c2.206-1.622,3.632-4.161,6.229-5.329c0.188,0.062,0.367,0.145,0.536,0.248c2.021,2.137,2.509,5.077,3.956,7.517
			c0.188,0.613,0.477,1.232-0.058,1.82c-1.001,0.012-1.59,0.707-2.22,1.336c-9.606,9.608-19.216,19.214-28.812,28.832
			C238.848,311.154,238.578,311.654,238.254,312.102z"/>
		<path fill-rule="evenodd" clip-rule="evenodd" fill="#F1F1F1" d="M338.627,331.426c-4.16,4.759-8.674,9.165-13.381,13.378
			c-2.439,0.912-4.992,0.972-7.531,0.818c-1.377-0.084-2.974-0.185-3.171-2.156l0,0c3.787-4.451,8.148-8.341,12.232-12.506
			c2.855-2.939,5.766-5.82,8.679-8.696c0.607-0.599,1.207-1.459,2.24-1.03c0.963,0.4,1.069,1.391,1.061,2.262
			C338.731,326.139,339.186,328.792,338.627,331.426z"/>
		<path fill-rule="evenodd" clip-rule="evenodd" fill="#4D2E1A" d="M270.266,280.6c-0.132-0.45-0.264-0.901-0.396-1.353
			c2.33-3.262,5.96-5.355,7.98-8.894c0.181,0.289,0.36,0.578,0.541,0.868c0.683,8.745,2.987,17.162,5.5,26.052
			C277.877,292.451,274.021,286.567,270.266,280.6z"/>
		<path fill-rule="evenodd" clip-rule="evenodd" fill="#F4F4F4" d="M338.627,331.426c-1.24-2.399-0.432-4.982-0.675-7.47
			c-0.071-0.73,0.345-1.71-0.466-2.115c-1.048-0.523-1.517,0.599-2.102,1.15c-2.957,2.786-5.869,5.619-8.798,8.437
			c-0.204-0.148-0.271-0.296-0.204-0.444c0.068-0.147,0.136-0.222,0.205-0.222c3.593-4.207,7.535-8.05,11.828-11.549
			c1.096-0.893,1.933-2.104,2.889-3.17c1.355-0.985,2.608-1.066,2.745,0.92c0.209,3.027,0.855,6.085-0.072,9.11
			C342.318,327.982,340.78,330.012,338.627,331.426z"/>
		<path fill-rule="evenodd" clip-rule="evenodd" fill="#F3F3F3" d="M334.614,154.832c-0.25-2.521,1.036-4.895,0.683-7.438
			c-0.198-1.42-0.183-2.897-2.024-3.267c1.34-1.56,2.68-3.119,4.02-4.679c0.949-0.592,1.745-1.387,2.672-2.009h-0.001
			c1.61-0.679,2.04,0.54,2.107,1.592c0.179,2.808,0.868,5.643-0.099,8.442C339.793,150.2,337.342,152.654,334.614,154.832z"/>
		<path fill-rule="evenodd" clip-rule="evenodd" fill="#F4F4F4" d="M314.544,343.466c1.876,2.034,4.362,1.535,6.539,1.147
			c1.503-0.268,2.787-0.114,4.163,0.19c-1.731,2.281-3.747,4.278-6.018,6.021c-2.635-0.001-5.27-0.019-7.904,0.006
			c-1.449,0.014-2.66-0.231-2.797-2.01C310.533,347.036,312.538,345.251,314.544,343.466z"/>
		<path fill-rule="evenodd" clip-rule="evenodd" fill="#F8F8F8" d="M341.306,255.84c2.474-2.318,4.947-4.637,7.855-7.361
			c0.097,6.756,2.009,13.395-5.183,17.395c-2.041-1.06-1.4-3.023-1.559-4.699C342.248,259.35,342.882,257.369,341.306,255.84z"/>
		<path fill-rule="evenodd" clip-rule="evenodd" fill="#F8F8F8" d="M341.304,195.637c2.481-2.311,4.964-4.621,7.863-7.32
			c0.081,6.713,2.013,13.357-5.19,17.351c-2.013-1.07-1.423-3.021-1.553-4.703C342.281,199.134,342.824,197.173,341.304,195.637z"/>
		<path fill-rule="evenodd" clip-rule="evenodd" fill="#F8F8F8" d="M343.978,326.073c-0.982-2.731-0.729-5.576-0.621-8.374
			c0.067-1.754-0.574-2.085-2.052-1.656c2.481-2.312,4.962-4.622,7.862-7.322C349.249,315.436,351.18,322.079,343.978,326.073z"/>
		<path fill-rule="evenodd" clip-rule="evenodd" fill="#F4F4F4" d="M341.304,195.637c1.485-0.431,2.049-0.076,2.068,1.662
			c0.03,2.789-0.688,5.665,0.604,8.368c-1.855,2.159-3.655,4.372-6.019,6.022c0-2.538-0.012-5.075,0.005-7.612
			c0.009-1.241,0.04-2.469-1.346-3.093C338.18,199.201,339.742,197.419,341.304,195.637z"/>
		<path fill-rule="evenodd" clip-rule="evenodd" fill="#F4F4F4" d="M341.306,255.84c1.49-0.436,2.047-0.071,2.066,1.663
			c0.031,2.789-0.689,5.666,0.606,8.37c-1.742,2.271-3.743,4.283-6.021,6.019c-0.001-2.506-0.004-5.012-0.002-7.518
			c0.001-1.253-0.345-2.356-1.34-3.189C338.18,259.403,339.742,257.622,341.306,255.84z"/>
		<path fill-rule="evenodd" clip-rule="evenodd" fill="#F3F3F3" d="M337.289,91.953c-0.369-3.579-0.298-7.212-1.342-10.706
			c0.672-0.89,1.342-1.78,2.014-2.67c1.398-0.506,2.087-2.914,3.794-2.057c1.69,0.85,1.176,2.95,1.138,4.548
			c-0.043,1.842,0.732,3.737-0.252,5.535C341.125,88.655,339.346,90.442,337.289,91.953z"/>
		<path fill-rule="evenodd" clip-rule="evenodd" fill="#F5F5F5" d="M337.958,31.082c-0.443-3.302-2.027-5.693-5.353-6.691
			c0.67-0.891,1.34-1.782,2.01-2.672c0.95-0.591,1.746-1.387,2.673-2.009v-0.001c3.464-0.58,6.324,2.281,6.021,6.022
			C341.796,27.784,340.015,29.571,337.958,31.082z"/>
		<path fill-rule="evenodd" clip-rule="evenodd" fill="#F6F6F6" d="M341.972,147.473c-0.858-2.327-0.621-4.754-0.687-7.159
			c-0.031-1.105,0.515-2.565-1.321-2.875c0.893-1.114,1.785-2.229,2.678-3.342c2.785-1.414,3.919-0.971,4.209,1.94
			c0.248,2.5,0.597,5.089-0.865,7.424C344.691,144.842,343.714,146.54,341.972,147.473z"/>
		<path fill-rule="evenodd" clip-rule="evenodd" fill="#F6F6F6" d="M342.641,86.602c-0.86-2.357-0.622-4.812-0.689-7.247
			c-0.023-0.827,0.459-1.943-0.565-2.403c-0.856-0.385-1.26,0.688-1.904,1.04c-0.473,0.258-1.012,0.394-1.521,0.584
			c1.532-2.926,4.991-3.927,6.688-6.689c1.723-0.116,2.074,1.179,2.151,2.387c0.176,2.767,0.526,5.555-0.146,8.314
			C345.581,84.191,344.244,85.531,342.641,86.602z"/>
		<path fill-rule="evenodd" clip-rule="evenodd" fill="#F9F9F9" d="M345.985,143.46c0-2.312-0.094-4.629,0.023-6.936
			c0.137-2.68-0.981-3.371-3.367-2.429c1.409-2.521,4.142-3.574,6.062-5.591C350.622,134.25,349.423,140.726,345.985,143.46z"/>
		<path fill-rule="evenodd" clip-rule="evenodd" fill="#F9F9F9" d="M346.653,82.588c-1.223-2.319-0.485-4.82-0.654-7.235
			c-0.093-1.315,0.227-2.746-1.351-3.466c1.364-1.207,2.728-2.414,4.651-4.118c0,4.315,0.083,7.982-0.038,11.642
			C349.21,80.979,347.873,81.811,346.653,82.588z"/>
		<path fill-rule="evenodd" clip-rule="evenodd" fill="#F8F8F8" d="M343.31,25.731c-0.926-3.088-2.596-5.433-6.021-6.021
			c1.116-1.337,2.231-2.674,3.347-4.011c2.68,1.624,5.5,3.122,6.02,6.688C345.798,23.76,344.686,24.877,343.31,25.731z"/>
		<path fill-rule="evenodd" clip-rule="evenodd" fill="#F4F4F4" d="M326.588,330.762c0,0.222-0.001,0.443-0.001,0.666
			c-3.742,4.284-7.75,8.304-12.043,12.038c0.597-2.616,2.968-3.793,4.604-5.534C321.505,335.425,324.097,333.141,326.588,330.762z"
			/>
		<path fill-rule="evenodd" clip-rule="evenodd" fill="#F6F6F6" d="M339.964,137.438c-0.585,1.076-1.318,1.955-2.672,2.009
			C337.879,138.374,338.611,137.495,339.964,137.438z"/>
		<path fill-rule="evenodd" clip-rule="evenodd" fill="#F1F1F1" d="M18.212,97.97c0.222-0.222,0.444-0.444,0.667-0.667
			c0.681-1.03,1.567-1.877,2.433-2.744c22.132-22.135,44.265-44.268,66.4-66.4c0.867-0.867,1.714-1.753,2.744-2.434
			c0.438-0.899,1.107-1.567,2.006-2.005c2.461-0.656,4.956-0.305,7.429-0.165c1.279,0.072,2.679,0.327,2.605,2.173
			c-1.192,1.305-2.336,2.659-3.585,3.908c-24.286,24.306-48.604,48.58-72.845,72.93c-2.108,2.118-4.977,3.405-6.516,6.108
			c-1.468,0.13-1.997-0.917-2.108-2.019C17.146,103.727,16.626,100.744,18.212,97.97z"/>
		<path fill-rule="evenodd" clip-rule="evenodd" fill="#482B18" d="M123.148,52.233c0.208-0.43,0.417-0.861,0.626-1.292
			c1.203-0.084,2.19-0.728,3.229-1.251c4.559-1.547,8.934-3.787,13.93-3.655c1.259,1.068,0.29,2.013-0.234,2.906
			c-0.564,0.961-1.437,1.693-2.223,2.479C116.44,73.46,94.403,95.497,72.368,117.534c-1.182,1.182-2.427,2.296-3.71,3.361
			c-0.564,0.469-1.217,1.125-1.981,0.21c-0.654-1.437-0.175-2.844,0.293-4.159c1.361-3.815,2.477-7.719,4.055-11.457
			c0.321-0.785,0.95-1.387,1.297-2.159c0.47-0.448,0.939-0.897,1.409-1.345c1.315-1.947,2.875-3.676,4.538-5.335
			c11.446-11.412,22.864-22.851,34.298-34.275C116.023,58.922,119.392,55.375,123.148,52.233z"/>
		<path fill-rule="evenodd" clip-rule="evenodd" fill="#F1F1F1" d="M71.726,105.332c-1.387,4.278-2.707,8.58-4.208,12.817
			c-0.378,1.069-0.484,2.124-0.666,3.197c0.168,0.926,0.323,1.847-0.974,2.092c-1.369,0.404-2.113,1.586-3.042,2.512
			c-13.526,13.497-27.031,27.016-40.553,40.518c-0.858,0.856-1.818,1.61-2.73,2.412c-1.848,0.076-2.104-1.325-2.176-2.604
			c-0.141-2.474-0.491-4.97,0.166-7.433c0.255-0.635,0.7-1.082,1.336-1.337c0.738-1.123,1.719-2.028,2.661-2.969
			c15.696-15.698,31.385-31.404,47.112-47.072C69.519,106.6,70.095,105.158,71.726,105.332z"/>
		<path fill-rule="evenodd" clip-rule="evenodd" fill="#351B06" d="M141.296,46.467c-5.134,0.494-9.784,2.759-14.707,4.021
			c-0.793,0.285-0.979-0.228-0.977-0.82c0.004-0.967,0.646-1.642,1.275-2.256c8.256-8.044,15.989-16.621,24.682-24.222
			c2.336-2.042,4.573-4.195,6.452-6.687c3.253-1.188,6.612-1.877,10.063-2.135c1.224,0.253,3.198-0.743,3.538,0.705
			c0.357,1.525-0.984,3.053-2.183,4.251c-7.535,7.538-15.08,15.065-22.596,22.621c-0.912,0.917-2.176,1.636-2.202,3.184
			C143.921,46.563,142.77,46.918,141.296,46.467z"/>
		<path fill-rule="evenodd" clip-rule="evenodd" fill="#4C2D19" d="M123.148,52.233c-0.101,0.982-0.855,1.523-1.474,2.142
			c-15.536,15.545-31.077,31.086-46.626,46.618c-0.385,0.385-0.876,0.665-1.317,0.993c4.572-11.259,11.4-21.034,19.859-29.663
			C102.078,63.664,112.022,57.057,123.148,52.233z"/>
		<path fill-rule="evenodd" clip-rule="evenodd" fill="#371C06" d="M158.021,16.504c-0.286,3.297-3.109,4.79-5.166,6.553
			c-7.578,6.497-14.162,13.984-21.363,20.849c-1.522,1.451-3.003,2.947-4.454,4.469c-0.543,0.57-1.616,1.135-0.45,2.113
			c-0.856,0.662-1.613,1.938-2.815,0.453c4.332-16.247,14.575-27.123,30.143-33.145C155.251,17.28,156.651,16.931,158.021,16.504z"
			/>
		<path fill-rule="evenodd" clip-rule="evenodd" fill="#F4F4F4" d="M18.212,97.97c0.001,2.537,0.013,5.074-0.001,7.611
			c-0.007,1.238-0.049,2.47,1.34,3.094c-1.646,2.368-3.862,4.165-6.019,6.021c-1.479-1.212-1.306-2.896-1.351-4.546
			c-0.05-1.844,0.39-3.758-0.656-5.487C13.482,102.16,15.714,99.931,18.212,97.97z"/>
		<path fill-rule="evenodd" clip-rule="evenodd" fill="#F4F4F4" d="M17.543,158.842c1.184,2.134,0.521,4.454,0.658,6.69
			c0.078,1.291-0.167,2.66,1.353,3.347c-1.492,2.522-4.122,3.905-6.021,6.019c-1.519-0.687-1.272-2.056-1.352-3.346
			c-0.136-2.236,0.525-4.555-0.656-6.688C13.265,162.591,15.272,160.585,17.543,158.842z"/>
		<path fill-rule="evenodd" clip-rule="evenodd" fill="#F4F4F4" d="M102.497,25.729c-0.687-1.519-2.057-1.271-3.346-1.35
			c-2.236-0.137-4.556,0.525-6.688-0.658c1.743-2.271,3.75-4.278,6.022-6.019c2.133,1.181,4.453,0.52,6.688,0.656
			c1.289,0.079,2.659-0.168,3.346,1.351C106.403,21.608,105.024,24.242,102.497,25.729z"/>
		<path fill-rule="evenodd" clip-rule="evenodd" fill="#F4F4F4" d="M71.726,105.332c-0.912,0.802-1.872,1.556-2.73,2.413
			c-15.799,15.78-31.583,31.575-47.383,47.355c-0.857,0.856-1.82,1.606-2.733,2.406c-0.015-1.137,0.792-1.782,1.495-2.485
			c16.962-16.964,33.926-33.928,50.895-50.884c0.31-0.31,0.7-0.539,1.053-0.805C72.749,104.185,72.113,104.722,71.726,105.332z"/>
		<path fill-rule="evenodd" clip-rule="evenodd" fill="#F1F1F1" d="M74.523,296.591c-1.716-0.831-2.386,0.673-3.255,1.541
			c-14.332,14.295-28.638,28.617-42.961,42.92c-0.859,0.858-1.82,1.612-2.733,2.415c-3.861,0.858-6.882-1.558-6.691-5.353l0,0
			c0.675-1.033,1.562-1.877,2.428-2.742c18.96-18.957,37.904-37.931,56.92-56.832c0.799-0.793,1.282-2.98,3.285-1.61
			c0.256,4.772-1.551,9.067-3.089,13.425C77.156,292.45,76.734,295.082,74.523,296.591z"/>
		<path fill-rule="evenodd" clip-rule="evenodd" fill="#371C06" d="M123.09,294.025c1.741-9.482-2.057-16.606-9.342-22.356
			c-1.874-1.479-2.733-0.981-3.591,0.93c-1.752,3.907-2.579,8.03-2.947,12.249c-0.338,3.875-0.512,7.763-0.801,12.338
			c-5.427-7.273-8.706-14.917-10.637-23.202c-0.219-0.259-0.277-0.554-0.2-0.88c5.139-5.468,9.902-11.331,16.229-15.567
			c0.323-0.036,0.638-0.003,0.945,0.1c4.28,3.227,7.5,7.58,11.727,10.898c4.238,3.329,9.005,5.725,13.572,8.48
			c0.18,0.271,0.292,0.568,0.333,0.892c-0.125,1.952-1.479,3.162-2.723,4.416c-3.97,4.004-7.93,8.02-12.102,11.818
			C123.4,294.103,123.245,294.064,123.09,294.025z"/>
		<path fill-rule="evenodd" clip-rule="evenodd" fill="#F1F1F1" d="M118.555,312.165c-1.914,0.884-3.858,1.714-5.47,3.125
			c-1.056,1.534-2.75,2.214-4.244,3.156c-10.346,6.531-19.765,14.045-26.298,24.647c-0.561,0.91-1.004,2.078-2.447,1.914
			c-1.278-0.39-2.588-0.584-3.906-0.779c-0.796-0.118-1.893-0.091-1.788-1.432c0.801-0.912,1.555-1.873,2.411-2.729
			c14.597-14.617,29.204-29.223,43.818-43.822c0.78-0.779,1.637-1.481,2.458-2.22l0.259-0.107c1.039,2.638-1.116,4.83-1.096,7.384
			c2.665,0.971,4.374-2.106,6.877-1.515c0.749,1.658-0.719,2.342-1.5,3.277c-2.274,2.722-5.262,4.705-7.672,7.293
			C119.49,310.959,119.023,311.562,118.555,312.165z"/>
		<path fill-rule="evenodd" clip-rule="evenodd" fill="#482B18" d="M95.933,273.184c-0.054,0.266-0.107,0.533-0.161,0.8
			c-2.025,0.538-1.278,2.946-2.648,3.927c-3.716,3.681-7.889,6.895-11.185,11.009c-0.838,1.047-1.952,1.852-3.214,2.343
			c-0.684,0.266-1.376,0.22-1.08-0.878c1.273-4.567,3.194-8.975,3.404-13.805c-0.345-0.481-0.384-0.927,0.155-1.304
			c0.171-0.233,0.343-0.467,0.516-0.701c4.233-5.825,9.831-10.345,14.83-15.436c0.628-0.64,1.581-1.463,2.453-0.101
			C99.469,264.077,97.643,268.617,95.933,273.184z"/>
		<path fill-rule="evenodd" clip-rule="evenodd" fill="#4D2E1B" d="M77.646,290.384c2.06,0.485,3.102-1.137,3.985-2.344
			c2.575-3.521,6.259-5.894,9.085-9.14c0.51-0.586,1.591-0.673,2.409-0.99c-3.174,7.682-8.364,13.612-15.543,17.785
			c-0.917,0.533-1.834,1.303-3.058,0.896C75.564,294.521,76.605,292.452,77.646,290.384z"/>
		<path fill-rule="evenodd" clip-rule="evenodd" fill="#F4F4F4" d="M18.882,338.114c0.943,3.394,3.292,5.029,6.691,5.353
			c-1.511,2.057-3.298,3.838-5.351,5.352c-3.57,0.747-6.723-1.775-6.69-5.352C15.046,341.413,16.828,339.628,18.882,338.114z"/>
		<path fill-rule="evenodd" clip-rule="evenodd" fill="#F4F4F3" d="M74.402,342.797c0.844,1.027,2.016,0.629,3.062,0.651
			c1.25,0.028,2.433,0.058,2.991,1.451c0.668,1.864-0.358,3.225-1.367,4.588c-0.164,0.038-0.329,0.062-0.496,0.069
			c-2.338-0.022-4.678-0.021-7.016-0.085c-0.731-0.021-1.704,0.364-2.115-0.512c-0.426-0.906,0.537-1.342,1.021-1.884
			c0.598-0.669,1.264-1.272,1.248-2.269C72.621,344.137,73.512,343.467,74.402,342.797z"/>
		<path fill-rule="evenodd" clip-rule="evenodd" fill="#F8F8F8" d="M13.532,343.467c1.291,2.958,3.242,5.091,6.69,5.352
			c-0.934,1.742-2.632,2.721-4.014,4.013c-3.507-0.587-5.194-3.195-6.688-6.019C10.857,345.697,12.195,344.582,13.532,343.467z"/>
		<path fill-rule="evenodd" clip-rule="evenodd" fill="#4C2D19" d="M98.482,258.514c-4.593,4.483-9.179,8.976-13.788,13.443
			c-0.947,0.918-1.981,1.747-2.975,2.617c0.863-13.206-1.373-25.822-7.192-37.755c-0.188-0.386-0.442-0.739-0.666-1.107
			c-0.525-0.318-0.516-0.785-0.363-1.293c8.668-8.447,17.123-17.111,25.744-25.608c2.089-2.06,4.175-4.01,3.971-7.309
			c-0.036-0.574,0.2-1.367,1.162-1.256c1.306,1.078,0.917,2.604,1.07,3.986c0.51,6.765,2.101,13.297,4.22,19.713
			c0.918,3.871,2.891,7.295,4.633,10.814c0.792,1.867,1.974,3.532,2.827,5.368c1.079,2.055,2.815,3.55,4.378,5.197
			c0.796,0.839,1.898,1.512,1.888,2.893c-0.649,1.067-1.652,0.965-2.672,0.821c-3.079-1.092-6.116-2.287-8.974-3.893
			c-3.609-2.125-7.167-4.312-10.38-7.046c-0.818-0.695-0.232,0.605-0.565,0.801c-0.034,5.297,0.261,10.591-0.666,15.839
			C99.888,256.147,99.894,257.631,98.482,258.514z"/>
		<path fill-rule="evenodd" clip-rule="evenodd" fill="#F1F1F1" d="M73.736,234.434c0.042,0.426,0.084,0.853,0.126,1.278
			c-1.001,0.867-2.061,1.676-2.995,2.609c-16.201,16.177-32.384,32.372-48.583,48.551c-0.858,0.856-1.819,1.61-2.732,2.413
			c-1.469,0.131-1.998-0.916-2.11-2.019c-0.298-2.93-0.817-5.913,0.77-8.689c0.804-0.913,1.56-1.873,2.418-2.732
			c15.571-15.59,31.157-31.164,46.726-46.757c0.999-1.001,2.318-1.815,2.417-3.46c0.334-0.114,0.631-0.044,0.898,0.181
			C71.972,228.582,73.588,231.247,73.736,234.434z"/>
		<path fill-rule="evenodd" clip-rule="evenodd" fill="#F4F4F4" d="M81.205,275.275c-0.052,0.435-0.104,0.869-0.155,1.304
			c-0.91,0.812-1.861,1.58-2.722,2.44C59.5,297.83,40.686,316.654,21.856,335.464c-0.938,0.938-1.98,1.77-2.975,2.65
			c-0.021-1.141,0.791-1.785,1.495-2.488c19.737-19.739,39.475-39.479,59.225-59.205C80.059,275.963,80.667,275.653,81.205,275.275z
			"/>
		<path fill-rule="evenodd" clip-rule="evenodd" fill="#F4F4F4" d="M18.212,278.577c0.001,2.538,0.013,5.075-0.002,7.613
			c-0.007,1.24-0.045,2.47,1.342,3.095c-1.415,2.152-3.443,3.691-5.352,5.351c-1.839-0.312-1.287-1.773-1.318-2.876
			c-0.068-2.405,0.172-4.832-0.689-7.158C13.934,282.327,15.942,280.321,18.212,278.577z"/>
		<path fill-rule="evenodd" clip-rule="evenodd" fill="#F1F1F1" d="M18.212,37.767c4.188-4.731,8.646-9.19,13.377-13.376
			c2.457-1.469,5.125-1.173,7.727-0.725c1.312,0.226,3.045,0.564,2.311,2.734c-6.859,7.412-13.993,14.547-21.406,21.405
			c-1.854,0.736-2.539-0.54-2.748-1.896C17.051,43.165,16.691,40.362,18.212,37.767z"/>
		<path fill-rule="evenodd" clip-rule="evenodd" fill="#F4F4F4" d="M90.456,25.726c-0.566,0.68-1.082,1.409-1.705,2.032
			c-22.604,22.623-45.218,45.236-67.84,67.84c-0.623,0.623-1.353,1.139-2.033,1.705c0.012-1.418,1.135-2.113,1.98-2.958
			C43.063,72.123,65.276,49.91,87.498,27.706C88.343,26.861,89.038,25.737,90.456,25.726z"/>
		<path fill-rule="evenodd" clip-rule="evenodd" fill="#F4F4F4" d="M41.627,26.4c-0.392-1.889-1.902-1.958-3.359-1.992
			c-2.225-0.053-4.452-0.017-6.678-0.018c0.448-0.668,0.896-1.335,1.344-2.003c3.572-2.866,7.604-4.034,12.164-3.359
			c1.038,0.153,2.32-0.282,2.549,1.35C45.533,22.278,44.149,24.908,41.627,26.4z"/>
		<path fill-rule="evenodd" clip-rule="evenodd" fill="#F4F4F4" d="M18.212,37.767c0.001,2.414,0.022,4.829-0.003,7.243
			c-0.015,1.452,0.237,2.658,2.013,2.795c-1.291,1.831-2.854,3.388-4.681,4.683c-1.612,0.683-2.039-0.54-2.106-1.591
			c-0.18-2.81-0.867-5.645,0.097-8.446C14.825,40.624,16.388,39.065,18.212,37.767z"/>
		<path fill-rule="evenodd" clip-rule="evenodd" fill="#F6F6F6" d="M13.531,42.451c0.862,2.328,0.622,4.756,0.689,7.162
			c0.031,1.104-0.519,2.565,1.32,2.875c-1.073,1.603-2.412,2.939-4.014,4.014c-1.61-0.223-1.323-1.471-1.331-2.521
			c-0.021-2.728-0.008-5.456-0.008-8.184C11.043,44.423,12.159,43.309,13.531,42.451z"/>
		<path fill-rule="evenodd" clip-rule="evenodd" fill="#4C2D19" d="M70.268,225.788c-0.172-0.032-0.336-0.086-0.494-0.16
			c-2.128-8.013-4.438-15.983-5.737-24.19c-0.624-3.938-1.193-7.886-1.787-11.829c-0.276-0.965-0.331-1.959-0.374-2.953
			c0.446-1.468,1.664-2.337,2.674-3.348c45.408-45.424,90.823-90.841,136.248-136.249c1.477-1.476,2.784-3.262,5.163-3.403
			c11.8,1.241,22.799,5.048,33.306,10.419c0.493,0.252,0.895,0.643,1.195,1.118c0.573,2.079-1.119,3.008-2.232,4.128
			c-11.238,11.301-22.521,22.558-33.79,33.827c-17.417,17.417-34.833,34.835-52.253,52.247c-1.102,1.102-2.134,2.281-3.419,3.192
			c-0.577,0.369-1.188,0.659-1.849,0.846c-4.732,0.613-9.491,0.959-14.228,1.553c-9.733,1.221-16.504,6.635-21.296,14.853
			c-4.005,6.868-5.516,14.472-6.255,22.274c-0.551,1.439-0.292,3.015-0.73,4.474c-0.39,1.09-1.24,1.832-2.024,2.617
			c-9.606,9.614-19.204,19.235-28.848,28.812C72.661,224.886,71.949,226.302,70.268,225.788z"/>
		<path fill-rule="evenodd" clip-rule="evenodd" fill="#F1F1F1" d="M62.292,186.284c-0.014,1.108-0.028,2.217-0.042,3.324
			c-0.874-2.44-1.797-1.11-2.823-0.082c-10.755,10.78-21.564,21.508-32.264,32.344c-2.021,2.048-4.818,3.245-6.275,5.873
			c-2.274,0.697-2.672-0.956-2.824-2.484c-0.227-2.284-0.5-4.604,0.148-6.883c2.451-2.562,4.857-5.165,7.359-7.674
			c10.897-10.933,21.817-21.84,32.743-32.742c0.856-0.854,1.825-1.596,2.742-2.389c0.606,0.165,0.992,0.563,1.217,1.136
			C62.773,179.896,62.95,183.09,62.292,186.284z"/>
		<path fill-rule="evenodd" clip-rule="evenodd" fill="#F3F3F3" d="M18.212,218.376c1.136,1.967,0.564,4.121,0.655,6.197
			c0.065,1.49-0.039,2.992,2.021,3.17c-1.949,2.509-4.187,4.73-6.686,6.69c-1.711-0.801-1.311-2.367-1.33-3.756
			c-0.031-2.315-0.01-4.632-0.01-6.948C14.377,221.677,16.162,219.893,18.212,218.376z"/>
		<path fill-rule="evenodd" clip-rule="evenodd" fill="#4C2D19" d="M272.577,83.243c0.2,0.44,0.399,0.879,0.599,1.318
			c-14.234,14.35-28.549,28.62-42.903,42.849c-1.104,1.095-1.254,2.121-1.244,3.413c-1.51,0.556-3.163,0.62-4.619,1.367
			c-18.238,5.419-36.588,10.377-55.319,13.802c-1.85,0.338-3.69,0.852-5.603,0.615c-1.093-0.417-0.944-1.083-0.302-1.775
			c1.059-1.142,2.22-2.183,3.322-3.284c26.034-26.042,52.071-52.081,78.117-78.11c1.096-1.096,2.074-2.334,3.462-3.112
			c0.321-0.104,0.631-0.074,0.927,0.088C258.008,66.847,265.97,74.346,272.577,83.243z"/>
		<path fill-rule="evenodd" clip-rule="evenodd" fill="#F1F1F1" d="M249.013,60.414l-0.328,0.024l-0.329-0.011
			c-3.023-0.107-4.023-2.209-4.64-4.697c-0.149-1.306-1.088-2.624,0.033-3.918c0.185-0.008,0.37-0.011,0.556-0.009
			c4.013-3.179,7.308-7.101,10.985-10.628c5.767-5.53,11.115-11.489,17.111-16.786c0.224-0.223,0.446-0.445,0.668-0.668
			c2.706-1.537,5.583-1.114,8.42-0.623c1.022,0.177,2.248,0.473,2.284,1.962C272.187,36.845,260.601,48.629,249.013,60.414z"/>
		<path fill-rule="evenodd" clip-rule="evenodd" fill="#F5F5F5" d="M283.773,25.06c-3.332-2.334-7.128-0.957-10.704-1.339
			c1.563-1.782,3.126-3.564,4.689-5.347c3.433-1.155,6.98-0.516,10.478-0.656c0.915-0.037,1.445,0.406,1.56,1.325
			C288.054,21.313,286.056,23.329,283.773,25.06z"/>
		<path fill-rule="evenodd" clip-rule="evenodd" fill="#F8F8F8" d="M337.288,19.709c-0.586,1.075-1.318,1.955-2.673,2.009
			C335.202,20.644,335.936,19.764,337.288,19.709z"/>
		<path fill-rule="evenodd" clip-rule="evenodd" fill="#4C2D19" d="M61.583,176.469c-0.176-0.299-0.352-0.599-0.527-0.898
			c-0.36-17.56,0.831-34.976,4.822-52.133c0.325-0.698,0.649-1.395,0.974-2.092c1.722-1.532,3.524-2.982,5.152-4.606
			c22.045-22.008,44.064-44.043,66.097-66.063c1.262-1.261,2.563-2.477,3.196-4.208c1.115-0.446,2.229-0.892,3.345-1.338
			c5.49-0.528,10.842-2.031,16.382-2.232c8.035-0.293,16.021-1.941,24.122-0.571c2.488,0.421,5.1,0.116,7.654,0.143
			c0.909,1.29-0.148,2.06-0.817,2.873c-0.776,0.944-1.699,1.761-2.564,2.627c-40.377,40.378-80.755,80.755-121.131,121.134
			C65.937,171.453,63.48,173.706,61.583,176.469z"/>
		<path fill-rule="evenodd" clip-rule="evenodd" fill="#482B18" d="M61.583,176.469c-0.131-2.068,1.373-3.165,2.622-4.414
			c41.972-41.971,83.946-83.94,125.899-125.93c1.064-1.065,2.584-1.861,2.695-3.656c0.447-0.004,0.894-0.009,1.341-0.014
			c3.81-0.645,7.525-0.252,11.163,1.006c0.35,0.271,0.422,0.603,0.22,0.995c-1.796,0.105-2.598,1.62-3.664,2.685
			c-45.534,45.499-91.046,91.018-136.571,136.525c-0.937,0.935-1.995,1.748-2.996,2.618
			C61.474,183.055,61.662,179.752,61.583,176.469z"/>
		<path fill-rule="evenodd" clip-rule="evenodd" fill="#341B06" d="M205.508,43.795c-3.798-0.378-7.642-0.36-11.367-1.34
			c7.323-7.862,14.891-15.479,22.793-22.763c3.447-0.565,5.471,1.789,7.688,3.747c0.405,1.394-0.387,2.358-1.247,3.245
			c-5.5,5.672-11.224,11.124-16.681,16.839C206.372,43.861,205.976,44.021,205.508,43.795z"/>
		<path fill-rule="evenodd" clip-rule="evenodd" fill="#F6F6F6" d="M224.224,23.783c-2.202-1.771-4.533-3.31-7.29-4.091
			c-0.103-0.179-0.184-0.367-0.244-0.564c1.179-0.92,2.359-1.841,3.539-2.763c2.504,0.001,5.01,0.005,7.515,0.003
			c1.251-0.001,2.356,0.341,3.188,1.336c-1.337,2.571-4.558,3.633-5.34,6.65C224.854,24.839,224.628,24.098,224.224,23.783z"/>
		<path fill-rule="evenodd" clip-rule="evenodd" fill="#F58D4D" d="M213.637,318.753c-2.101,1.294-2.84,3.556-3.896,5.569
			c-2.169,4.137-2.15,4.181-6.41,1.974c-3.158-1.635-6.385-3.179-9.365-5.099c-1.686-1.087-2.332-0.654-3.361,0.729
			c-4.099,5.511-7.037,11.503-8.44,18.268c-0.742,3.576-1.836,7.078-2.771,10.613c-1.819-0.367-1.498-1.909-1.581-3.102
			c-0.157-2.277-0.08-4.567-0.037-6.849c1.014-7.549,4.208-14.55,5.669-21.971c1.77-8.99,5.785-16.464,13.02-22.201
			c1.432-1.135,3.007-2.371,3.396-4.407c0.014-1.067,0.103-2.132,0.02-3.199c0.089-1.851-0.271-3.746,0.545-5.521
			c0.201-0.337,0.502-0.496,0.894-0.478c1.753,1.73,1.017,3.95,1.006,5.947c-0.014,2.337,0.81,3.597,3.078,4.367
			c4.213,1.429,7.815,4.032,11.423,6.577c1.225,1.117,2.65,1.998,3.823,3.183c0.947,1.323,0.319,2.564-0.298,3.729
			c-2.015,3.802-4.373,7.425-5.862,11.497C214.377,318.686,213.981,318.762,213.637,318.753z"/>
		<path fill-rule="evenodd" clip-rule="evenodd" fill="#EFB668" d="M145.215,345.683c-0.173-0.108-0.347-0.218-0.52-0.327
			c0.201-3.787-0.463-7.508-0.845-11.25c0.056-0.452,0.112-0.904,0.169-1.355c0.989-2.106,2.796-3.508,4.387-5.101
			c0.486-0.408,1.03-0.718,1.613-0.963c4.044-1.496,7.571-3.993,11.411-5.877c3.158-1.55,3.521-1.401,5.465,1.7
			c0.061,0.335-0.016,0.637-0.229,0.903c-6.833,6.738-13.664,13.478-20.501,20.21C145.58,344.199,145.33,344.903,145.215,345.683z"
			/>
		<path fill-rule="evenodd" clip-rule="evenodd" fill="#EFB668" d="M211.595,340.939c-0.369-0.515,0.521-2.761-1.432-1.092
			c-1.602,1.37-3.104,2.854-4.651,4.288c-2.699,0.695-5.433,0.385-8.138,0.15c-1.072-0.093-2.63-0.254-1.897-2.159
			c4.796-4.906,9.561-9.847,14.407-14.702c1.568-1.571,3.096-3.097,3.546-5.372c0.545,0.356,0.747,0.902,0.846,1.509
			c-0.617,2.996,0.314,6.247-1.473,9.054C211.56,335.268,212.839,338.287,211.595,340.939z"/>
		<path fill-rule="evenodd" clip-rule="evenodd" fill="#F58E4D" d="M166.667,323.413c0.01-0.217,0.012-0.433,0.004-0.649
			c1.107-2.239,2.746-3.938,5.045-4.972c0.353,0.057,0.628,0.234,0.833,0.527c2.259,6.501,4.015,13.143,5.528,19.851
			c0.148,0.654,0.223,1.308,0.645,1.856c0.439,3.58-0.747,7.262,0.673,10.78c-0.308,1.034-0.614,2.068-0.921,3.102
			c-0.216,0.017-0.433,0.033-0.648,0.05c-1.694-5.722-3.552-11.401-5.035-17.177C171.542,331.921,169.894,327.328,166.667,323.413z"
			/>
		<path fill-rule="evenodd" clip-rule="evenodd" fill="#4D423E" d="M213.605,323.39c-0.059-0.446-0.117-0.892-0.176-1.337
			c0.068-1.1,0.138-2.199,0.206-3.299c1.034-4.336,3.75-7.849,5.696-11.739c0.538-1.073,1.866-2.063,0.852-3.549
			c4.045-1.077,7.147,0.813,10.092,3.204c0.11,0.165,0.189,0.344,0.237,0.536c-1.639,3.099-4.569,5.021-6.875,7.512
			c-2.247,2.429-4.633,4.731-7.019,7.026C215.786,322.545,215.087,323.722,213.605,323.39z"/>
		<path fill-rule="evenodd" clip-rule="evenodd" fill="#F2B869" d="M195.477,342.127c0.312,1.842,1.777,1.228,2.885,1.334
			c2.383,0.231,4.859-0.542,7.15,0.675c-1.511,2.057-3.298,3.838-5.351,5.352c-2.431,0-4.861,0.023-7.291-0.012
			c-0.963-0.013-2.179,0.377-2.772-0.599c-0.711-1.172,0.946-1.526,1.172-2.434c0.079-0.319,0.132-0.645,0.196-0.968
			C192.803,344.359,194.14,343.243,195.477,342.127z"/>
		<path fill-rule="evenodd" clip-rule="evenodd" fill="#F58D4D" d="M149.992,327.41c-0.447,0.226-0.894,0.451-1.34,0.677
			c-3.109-2.941-4.663-6.755-6.004-10.689c-1.916-3.554-3.847-7.1-5.737-10.667c-0.534-1.01-1.536-1.994-0.508-3.267
			c0.42-1.554,1.719-2.362,2.824-3.338c3.222-2.143,6.446-4.288,9.934-5.983c1.887-0.917,3.811-1.813,6.02-1.489
			c0.323,0.071,0.698,0.118,0.918,0.341c4.553,4.576,9.269,9.003,13.134,14.218c0.091,0.493,0.051,0.976-0.115,1.446
			C163.054,315.224,157.009,321.812,149.992,327.41z"/>
		<path fill-rule="evenodd" clip-rule="evenodd" fill="#FCFCFC" d="M139.494,300.74c-0.753,1.222-1.976,1.91-3.089,2.724
			c-6.133,0.747-11.292,3.814-16.446,6.893c1.322-2.915,4.16-4.479,6.099-6.846c1.031-1.257,2.66-2.024,3.095-3.77
			c2.551-3.6,4.42-7.71,7.938-10.586c1.474,1.087,0.846,2.906,1.501,4.28C138.742,295.889,140.223,298.18,139.494,300.74z"/>
		<path fill-rule="evenodd" clip-rule="evenodd" fill="#F9BE6C" d="M142.648,317.397c2.001,3.563,4.002,7.126,6.004,10.689
			c-1.274,1.822-2.846,3.349-4.632,4.663C143.232,327.662,142.731,322.549,142.648,317.397z"/>
		<path fill-rule="evenodd" clip-rule="evenodd" fill="#371C06" d="M224.224,23.783c0.456,0.19,0.912,0.38,1.368,0.571
			c9.245,7.041,14.835,16.499,18.157,27.457c0.203,1.302,0.407,2.605,0.611,3.908c0.665,2.132,0.025,2.772-2.029,1.762
			c-0.801-0.394-1.53-0.888-2.027-1.659c-10.792-6.241-22.434-9.883-34.78-11.366c-0.006-0.22-0.012-0.44-0.016-0.661
			c5.501-5.612,11.014-11.214,16.493-16.848C222.899,26.023,224.188,25.331,224.224,23.783z"/>
		<path fill-rule="evenodd" clip-rule="evenodd" fill="#F5F5F5" d="M272.401,24.389c-8.753,9.515-18.184,18.36-27.264,27.552
			c-0.276,0.28-0.601,0.186-0.833-0.139c8.856-8.945,17.707-17.896,26.59-26.817C271.244,24.635,271.893,24.581,272.401,24.389z"/>
		<path fill-rule="evenodd" clip-rule="evenodd" fill="#493F3B" d="M213.605,323.39c4.636-4.544,9.263-9.098,13.918-13.622
			c0.939-0.912,1.99-1.711,2.989-2.562c2.737,1.145,5.442,2.337,7.224,4.896c-0.066,0.198-0.121,0.398-0.166,0.602
			c-7.193,7.097-14.375,14.205-21.598,21.271c-0.738,0.723-1.354,2.23-2.556,1.695c-1.136-0.507-0.313-2.025-0.613-3.053
			C212.765,329.514,212.895,326.426,213.605,323.39z"/>
		<path fill-rule="evenodd" clip-rule="evenodd" fill="#EFB768" d="M79.087,349.487c0.456-1.529,0.912-3.059,1.367-4.588
			c7.216-12.53,18.051-21.226,30.23-28.486c0.755-0.45,1.598-0.752,2.4-1.123c0.93,1.172-0.372,1.523-0.855,2.01
			c-10.019,10.079-20.082,20.116-30.116,30.181C81.229,348.368,80.198,348.972,79.087,349.487z"/>
		<path fill-rule="evenodd" clip-rule="evenodd" fill="#EFB768" d="M255.01,342.796c3.348-3.866,6.908-7.519,10.852-10.785
			c1.98,1.805,3.999,3.576,5.24,6.023c-0.874,2.849-3.353,4.278-5.387,6.102c-2.774,1.595-5.759,1.069-8.688,0.771
			C255.925,344.796,254.879,344.265,255.01,342.796z"/>
		<path fill-rule="evenodd" clip-rule="evenodd" fill="#F2B869" d="M255.01,342.796c0.801,1.711,2.366,1.314,3.755,1.332
			c2.316,0.03,4.634,0.008,6.95,0.008c-1.512,2.057-3.297,3.838-5.351,5.352c-2.644,0-5.286,0.006-7.93-0.004
			c-0.76-0.003-1.678,0.173-2.129-0.572c-0.66-1.091,0.557-1.478,1.048-2.088c0.493-0.613,0.992-1.178,0.984-2.017
			C253.229,344.136,254.119,343.466,255.01,342.796z"/>
		<path fill-rule="evenodd" clip-rule="evenodd" fill="#FCCB9A" d="M168.77,307.339c-4.533-4.712-9.067-9.424-13.601-14.136
			c-1.11-1.573-0.799-3.395-0.692-5.092c0.179-2.828-0.671-4.673-3.69-5.137c-0.747-0.115-1.432-0.532-1.974-1.108
			c-0.888-1.244-0.019-2.129,0.732-2.89c8.096-8.187,16.177-16.389,24.447-24.4c0.32-0.311,0.73-0.496,1.147-0.657
			c4.17-0.526,8.396-0.281,12.564-0.984c4.289-0.724,8.466-1.655,12.707-4.836c-5.487,1.339-10.065,3.056-14.906,3.646
			c-2.096,0.256-4.177,0.564-6.254-0.073c-1.177-0.707-0.569-1.504-0.062-2.23c0.704-1.007,1.64-1.814,2.504-2.68
			c15.812-15.824,31.643-31.627,47.437-47.468c3.555-3.436,6.976-7.006,10.526-10.444c0.897-0.87,1.612-2.187,3.227-1.888
			c1.212,6.563,2.092,13.164,2.199,19.851c0.463,1.862,0.187,3.757,0.206,5.635c0.041,4.002-0.048,4.1-3.474,2.309
			c-2.365-1.236-4.8-1.627-7.4-1.479c-6.051,0.345-10.929,5.514-11.018,11.702c-0.09,6.247,4.932,11.615,11.128,11.896
			c1.324,0.062,2.673-0.112,3.951,0.395c0.551,0.308,0.781,0.739,0.538,1.369c-0.33,0.857-0.961,1.49-1.587,2.117
			c-14.058,14.072-28.11,28.148-42.199,42.188c-0.87,0.867-1.833,1.617-2.977,2.114c-0.316,0.139-0.642,0.235-0.978,0.308
			c-10.078,1.571-25.812,1.06-32.435-1.045c-0.43-0.117-0.174,0.726-0.182,0.279c-0.002-0.103,0.108-0.14,0.315-0.072
			c5.065,1.663,9.958,3.81,15.138,5.17c3.212,0.844,6.643,0.782,9.677,2.34c1.124,1.175,0.191,2.073-0.525,2.823
			c-3.872,4.057-7.837,8.024-11.895,11.896C170.68,307.41,169.861,308.166,168.77,307.339z"/>
		<path fill-rule="evenodd" clip-rule="evenodd" fill="#482B18" d="M291.067,126.739c0.887,2.547,1.436,5.158,1.478,7.864
			c-0.005,1.473-0.269,2.751-1.43,3.906c-15.858,15.771-31.669,31.59-47.496,47.393c-0.153,0.153-0.367,0.246-0.553,0.368
			c-2.23-2.574-2.703-5.448-1.466-8.613c-0.16-1.667,0.479-2.917,1.683-4.116c15.132-15.063,30.216-30.173,45.316-45.267
			C289.299,127.574,289.925,126.736,291.067,126.739z"/>
		<path fill-rule="evenodd" clip-rule="evenodd" fill="#F8A98C" d="M238.951,237.786c-3.278-0.163-6.632,0.544-9.726-1.347
			c-6.459-3.947-8.631-11.7-4.952-18.104c3.275-5.703,11.227-7.774,17.531-4.564c0.957,0.487,1.908,0.986,3.277,1.695
			c0-3.146,0-5.899,0-8.654c1.128,7.582,0.364,15.128-0.429,22.675c-0.104,0.979-0.192,1.961-0.287,2.941
			c-0.794,1.475-0.304,3.319-1.363,4.716C241.608,237.082,240.454,238.535,238.951,237.786z"/>
		<path fill-rule="evenodd" clip-rule="evenodd" fill="#EFC192" d="M241.601,177.656c0.115,2.935,0.737,5.783,1.466,8.613
			c-0.062,0.23-0.122,0.461-0.184,0.691c-4.425,4.233-8.85,8.467-13.273,12.7c-0.303,0.283-0.575,0.258-0.82-0.075
			c-0.15-0.986,0.466-1.683,0.942-2.421c2.191-3.396,2.002-6.948,0.729-10.579c-0.021-0.33,0.02-0.654,0.106-0.973
			c1.041-1.879,2.757-3.154,4.222-4.648c2.081-2.121,4.296-4.119,5.579-6.882C240.779,175.274,241.19,176.466,241.601,177.656z"/>
		<path fill-rule="evenodd" clip-rule="evenodd" fill="#FCCB9A" d="M240.368,174.083c0.112,1.75-0.518,3.11-1.85,4.309
			c-2.591,2.332-5.061,4.799-7.581,7.209c-1.123,0.319-1.527-0.666-2.148-1.216c-3.207-2.838-6.919-3.42-10.051-1.544
			c-3.52,2.108-5.361,6.333-4.648,10.241c0.437,2.39,1.923,4.203,3.002,6.247c0.098,0.314,0.124,0.634,0.078,0.96
			c-1.163,2.204-3.175,3.653-4.868,5.373c-5.273,5.354-10.618,10.64-15.925,15.961c-1.332,1.336-2.697,2.618-4.409,3.469
			c-2.16,1.159-4.44,2.067-6.719,2.935c-4.286,1.633-8.668,1.777-13.067,0.34c-1.803-0.589-3.508-1.396-5.232-2.171
			c-0.748-0.338-1.671-1.196-2.388-0.303c-0.615,0.767,0.143,1.681,0.496,2.467c0.614,1.365,1.657,2.338,2.966,3.054
			c2.478,1.353,5.063,2.218,7.943,2.173c1.758-0.028,3.566-0.304,5.264,0.471c1.254,1.276,0.309,2.317-0.518,3.142
			c-4.391,4.387-8.491,9.072-13.312,13.018c-3.997,0.651-7.453-1.349-11.186-2.366c1.492,2.008,1.626,2.078,4.21,3.131
			c1.185,0.483,2.64,0.561,3.258,1.99c0.101,1.556-1.056,2.389-1.974,3.313c-6.431,6.47-12.866,12.936-19.363,19.338
			c-1.187,1.17-2.302,2.993-4.488,1.66c-10.204-4.21-18.523-10.862-25.299-19.517c-0.605-0.582-0.447-1.284-0.014-1.76
			c2.477-2.715,4.688-5.722,8.015-7.535c0.882-0.203,2.011,0.679,2.648-0.601c-0.773-1.113-0.417-2.105,0.335-3.048
			c0.628-0.785,1.357-1.477,2.066-2.186c33.808-33.81,67.61-67.623,101.45-101.4c1.093-1.092,1.878-2.907,3.972-2.509
			C235.154,150.246,238.101,162.075,240.368,174.083z"/>
		<path fill-rule="evenodd" clip-rule="evenodd" fill="#EFC192" d="M231.033,138.727c-0.923,0.794-1.902,1.533-2.761,2.391
			c-34.219,34.2-68.429,68.409-102.632,102.625c-1.155,1.156-2.683,2.127-2.43,4.127c-2.542-2.193-5.08-4.39-6.649-7.451
			c-0.261-1.655,0.955-2.325,2.05-3.079c0.307-0.138,0.629-0.226,0.961-0.276c7.741,0.194,12.143-2.225,14.271-7.758
			c0.909-2.365,0.345-4.836,0.689-7.235c0.054-0.322,0.147-0.636,0.271-0.938c0.636-1.207,1.681-2.065,2.622-3.007
			c27.802-27.813,55.617-55.616,83.405-83.444c1.261-1.264,2.688-2.297,4.037-3.439c1.31-0.466,2.529-1.776,4.036-0.438
			c1.514,1.953,2.363,4.117,2.1,6.633C231.015,137.868,231.023,138.297,231.033,138.727z"/>
		<path fill-rule="evenodd" clip-rule="evenodd" fill="#4C2D19" d="M231.005,137.438c-0.947-2.133-1.752-4.311-2.1-6.633
			c-0.845-1.465-0.662-2.489,0.679-3.815c13.594-13.442,27.081-26.993,40.606-40.505c0.85-0.85,1.58-1.92,2.985-1.924
			c1.903,2.232,3.407,4.719,4.679,7.353c-1.002,0.871-2.061,1.686-2.998,2.622c-13.565,13.541-27.11,27.104-40.681,40.641
			C233.258,136.092,232.546,137.367,231.005,137.438z"/>
		<path fill-rule="evenodd" clip-rule="evenodd" fill="#371C06" d="M216.783,300.733c-4.689-2.594-8.822-6.264-14.255-7.41
			c-1.266-0.268-1.073-1.187-1.086-2.04c-0.037-2.646-0.058-5.291-0.085-7.937c0.034-1.6,1.402-1.476,2.372-1.74
			c1.804-0.494,3.633-0.898,5.404-1.507c19.405-5.867,33.363-18.175,42.817-35.945c2.37-4.453,3.723-9.292,5.886-13.805
			c0.633-0.743,0.535-1.822,1.172-2.564c1.05-1.078,1.211-0.226,1.37,0.631c-0.107,10.901-0.386,21.814,2.586,32.475
			c0.2,0.722,0.059,1.539,0.076,2.311c0.715,4.793-0.434,9.192-2.812,13.333c-2.767,7.05-5.143,14.296-10.32,20.534
			c-0.613-3.719,0.096-7.261-0.816-10.649c-1.065-0.773-0.864-1.973-1.005-3.047c-0.362-2.769-0.946-5.486-1.861-8.126
			c-1.2-3.462-2.185-3.746-4.882-1.432c-6.9,5.922-9.334,14.583-6.554,23.294c0.438,1.372,1.062,2.711,0.827,4.216
			c0.334,1.91-1.167,1.188-2.015,1.404c-3.724,0.56-6.22-1.877-8.571-3.988c-2.858-2.566-4.992-5.827-6.104-9.575
			c0.17,2.182,0.184,4.323,0.133,6.471C218.61,297.476,218.9,299.646,216.783,300.733z"/>
		<path fill-rule="evenodd" clip-rule="evenodd" fill="#482B19" d="M277.851,270.354c-0.905,4.539-4.762,6.431-7.98,8.894
			c-1.501-2.515-2.894-5.078-3.503-7.984c3.256-3.872,6.877-7.383,10.66-10.731C277.67,263.773,277.893,267.053,277.851,270.354z"/>
		<path fill-rule="evenodd" clip-rule="evenodd" fill="#F9F8F8" d="M260.229,276.534c0.938-4.444,1.876-8.889,2.812-13.333
			c1.699,2.33,1.855,5.211,2.79,7.813C264.295,273.189,262.515,275.119,260.229,276.534z"/>
		<path fill-rule="evenodd" clip-rule="evenodd" fill="#EFC192" d="M209.573,280.768c-2.738,0.858-5.477,1.719-8.215,2.579
			c-0.001,0-0.231-0.033-0.231-0.033l-0.233,0.006c-2.733,1.701-5.594,2.531-8.759,1.28c3.108-2.997,6.26-5.95,9.317-8.998
			c11.715-11.677,23.403-23.381,35.089-35.088c0.856-0.857,1.609-1.816,2.411-2.728c1.382-0.01,2.411-2.253,4.051-0.642
			c-0.605,3.586-1.831,6.963-3.408,10.228c-0.314,0.653-1.346,1.747,0.626,1.519c0.782,1.518-0.512,2.25-1.288,3.034
			c-8.809,8.897-17.688,17.725-26.523,26.596C211.543,279.391,210.365,279.828,209.573,280.768z"/>
		<path fill-rule="evenodd" clip-rule="evenodd" fill="#FCCB9A" d="M209.573,280.768c0.334-1.277,1.423-1.963,2.271-2.814
			c8.717-8.748,17.462-17.468,26.178-26.218c0.843-0.846,1.972-1.508,2.198-2.845c6.564-5.7,12.614-11.866,17.379-19.195
			c0.674-0.146,1.015,0.045,0.804,0.793c-2.845,9.14-7.051,17.596-12.82,25.241C236.321,268.004,224.386,276.461,209.573,280.768z"
			/>
		<path fill-rule="evenodd" clip-rule="evenodd" fill="#DCB084" d="M258.403,230.488c-0.269-0.265-0.535-0.529-0.804-0.793
			c0.271-0.784,0.452-1.634,1.409-1.91C259.158,228.766,259.194,229.72,258.403,230.488z"/>
		<path fill-rule="evenodd" clip-rule="evenodd" fill="#FEFEFE" d="M235.617,301.324c-5.52-10.364-2.719-22.464,6.583-29.449
			c2.378-1.785,3.337-1.014,4.219,1.241c1.675,4.279,2.673,8.689,2.673,13.303c-0.187,0.957-0.172,1.957-0.969,2.729
			C243.94,293.192,239.783,297.263,235.617,301.324z"/>
		<path fill-rule="evenodd" clip-rule="evenodd" fill="#FDFDFC" d="M216.783,300.733c0.501-1.799,1.004-3.599,1.506-5.397
			c0.591-1.67,0.105-3.4,0.292-5.09c0.069-0.626-0.398-1.645,0.915-1.576c2.76,6.636,6.847,11.938,14.106,14.059
			c-0.347,1.958-1.931,2.87-3.327,3.941c-3.37-1.05-6.466-2.958-10.091-3.204C218.939,302.693,217.612,302.023,216.783,300.733z"/>
		<path fill-rule="evenodd" clip-rule="evenodd" fill="#EFC192" d="M137.86,277.282c1.021-0.002,1.941-0.185,2.713-0.981
			c7.549-7.785,15.563-15.114,22.818-23.189c0.396-0.429,0.906-0.613,1.468-0.686c2.161,0.104,4.283,0.539,6.431,0.773
			c1.141,0.465,2.542,0.258,3.459,1.312c-7.737,7.843-15.479,15.68-23.206,23.533c-1.009,1.025-1.928,2.138-2.89,3.21
			c-0.381,0.414-0.871,0.55-1.413,0.557c-3.268-0.901-6.655-1.535-9.239-4.015C137.975,277.62,137.927,277.449,137.86,277.282z"/>
		<path fill-rule="evenodd" clip-rule="evenodd" fill="#341B06" d="M138.003,277.797c3.104,1.169,6.208,2.338,9.313,3.507
			c0.225,0.254,0.484,0.645,0.323,0.875c-2.614,3.74-5.294,7.424-9.74,9.236c-0.396-0.583-0.2-1.273-0.333-1.905
			c-0.09-0.424-0.235-0.844-0.075-1.282c-0.422,0.253-0.402,0.838-0.822,1.091c-1.784,3.995-4.267,7.486-7.517,10.423
			c-2.6,1.351-5.028,3.203-8.468,2.854c0.908-2.956,1.787-5.817,2.666-8.678c0.473-1.847,2.209-2.561,3.352-3.812
			C130.457,285.991,135.216,282.796,138.003,277.797z"/>
		<path fill-rule="evenodd" clip-rule="evenodd" fill="#351B06" d="M98.482,258.514c1.287-5.583,1.432-11.253,1.366-16.948
			c-0.015-1.261-0.482-2.651,0.57-3.775c1.965,0.69,2.178,2.678,3.023,4.17c1.259,2.223,2.243,4.596,3.575,6.783
			c1.259,2.035,2.632,3.995,3.98,5.972c0.59,0.864,1.537,1.638,0.971,2.9c-5.345,5.189-10.69,10.379-16.034,15.568
			c-0.167-3.446,1.383-6.549,2.027-9.833C98.277,261.73,98.518,260.149,98.482,258.514z"/>
		<path fill-rule="evenodd" clip-rule="evenodd" fill="#EFC192" d="M111.966,257.615c-1.584-2.966-4.127-5.32-5.413-8.478
			c1.635-1.691,3.022-3.666,5.294-4.629c2.905,1.32,5.81,2.642,8.715,3.962c-2.019,2.133-4.05,4.256-6.053,6.404
			c-0.797,0.855-1.943,1.494-1.948,2.891C112.363,257.716,112.165,257.665,111.966,257.615z"/>
		<path fill-rule="evenodd" clip-rule="evenodd" fill="#FCCB9A" d="M224.869,131.242c-0.241,1.058-1.105,1.647-1.804,2.346
			c-28.583,28.595-57.172,57.184-85.77,85.765c-0.623,0.623-1.352,1.141-2.03,1.707c-1.638,0.096-1.852-1.375-2.455-2.33
			c-3-4.745-7.478-6.199-12.688-5.347c-4.793,0.785-7.917,3.733-9.239,8.52c-0.28,1.013,0.028,2.628-1.837,2.589
			c-2.575-6.481-3.916-13.235-4.446-20.169c0.5-1.133,1.215-2.1,2.096-2.979c10.874-10.852,21.728-21.723,32.599-32.576
			c0.629-0.627,1.242-1.283,2.088-1.638c1.624-0.483,3.024,0.395,4.515,0.742c2.233,0.519,2.914-0.21,2.21-2.385
			c-0.339-1.047-1.123-1.925-1.219-3.076c-0.012-0.964,0.507-1.69,1.141-2.316c4.719-4.658,9.171-9.587,14.191-13.94
			c0.153-0.04,0.307-0.076,0.462-0.113c15.407-2.307,30.5-6.021,45.495-10.168C213.743,134.335,219.306,132.786,224.869,131.242z"/>
		<path fill-rule="evenodd" clip-rule="evenodd" fill="#F8A98C" d="M109.047,224.492c1.527-2.291,1.245-5.226,3.12-7.518
			c6.165-7.543,18.948-5.604,21.989,2.465c0.224,0.596,0.733,1.083,1.109,1.621c-0.004,0.228-0.009,0.455-0.014,0.683
			c-4.712,5.967-10.052,11.305-16.018,16.018c-0.225,0.004-0.451,0.008-0.676,0.011c-2.138,0.049-3.484-1.399-4.951-2.62
			C111.591,231.811,109.962,228.305,109.047,224.492z"/>
		<path fill-rule="evenodd" clip-rule="evenodd" fill="#EFC192" d="M141.305,167.652c-12.061,12.397-24.26,24.658-36.704,36.671
			c-0.229-1.391-0.458-2.782-0.686-4.174c-1.702-2.37-1.294-4.771-0.105-7.184c0.436-1.604-0.225-3.34,0.584-4.9
			c0.916,1.847,1.757,1.172,2.858,0.067c7.082-7.105,14.115-14.259,21.3-21.269c0.441-0.336,0.928-0.566,1.462-0.712
			c2.633-0.433,5.278-0.298,7.916-0.172C139.262,166.042,140.583,166.284,141.305,167.652z"/>
		<path fill-rule="evenodd" clip-rule="evenodd" fill="#482B18" d="M103.81,192.966c0.035,2.395,0.07,4.789,0.105,7.185
			c0.674,3.95-1.279,6.586-4.006,9.214c-7.779,7.495-15.321,15.236-22.979,22.858c-0.919,0.914-1.64,2.184-3.192,2.211
			c-1.472-2.756-2.745-5.591-3.469-8.646c3.099-2.205,5.486-5.161,8.175-7.795C86.93,209.683,95.358,201.312,103.81,192.966z"/>
		<path fill-rule="evenodd" clip-rule="evenodd" fill="#FAC999" d="M111.848,244.509c-1.56,1.777-2.798,3.923-5.294,4.629
			c-2.67-3.445-4.079-7.571-6.136-11.348c-0.135-0.522-0.269-1.045-0.635-2.464C103.705,239.335,107.787,241.908,111.848,244.509z"
			/>
		<path fill-rule="evenodd" clip-rule="evenodd" fill="#F7C696" d="M113.608,235.151c1.759,0.668,3.526,1.321,4.951,2.62
			c-0.666,0.883-1.331,1.766-1.997,2.647C115.578,238.663,114.593,236.907,113.608,235.151z"/>
		<path fill-rule="evenodd" clip-rule="evenodd" fill="#4C2D19" d="M240.304,55.822c0.882,0.354,1.845,0.58,2.628,1.087
			c1.938,1.255,1.096-0.635,1.429-1.19c0.237,2.499,2.361,3.396,3.995,4.708c-0.792,0.922-1.526,1.9-2.383,2.757
			c-26.589,26.609-53.188,53.208-79.798,79.795c-1.093,1.092-2.324,2.045-3.491,3.063l0.051,0.226
			c-3.64,2.036-7.743,2.063-11.708,2.668c-0.865,0.132-1.746-0.078-2.372-0.825c0.887-0.988,1.731-2.02,2.668-2.958
			c28.774-28.79,57.559-57.569,86.333-86.359C238.592,57.856,239.424,56.815,240.304,55.822z"/>
		<path fill-rule="evenodd" clip-rule="evenodd" fill="#FCCB9A" d="M128.587,167.543c-8.021,7.673-16.042,15.346-23.918,22.878
			c-0.035-0.299-0.155-1.327-0.274-2.354c0.501-8.679,2.457-16.958,7.138-24.386c4.983-7.904,12.077-12.621,21.488-13.586
			c4.759-0.489,9.521-0.944,14.282-1.414c0.235,0.415,0.29,0.892-0.014,1.233c-3.121,3.505-5.979,7.295-10.218,9.616
			c-3.442,0.258-6.872,0.638-10.218,1.52c-2.175,0.573-4.217,1.478-5.821,3.116c-0.782,0.798-1.602,1.777-0.966,2.948
			c0.582,1.071,1.741,0.664,2.729,0.614C124.724,167.629,126.615,166.245,128.587,167.543z"/>
		<path fill-rule="evenodd" clip-rule="evenodd" fill="#EFC192" d="M137.133,158.925c3.702-3.105,7.194-6.419,10.169-10.245
			c0.451-0.19,0.902-0.38,1.353-0.57c4.782,0.066,9.347-1.526,14.079-1.843c-5.144,5.32-10.288,10.64-15.432,15.96
			c-3.361-0.471-6.493-1.884-9.848-2.39C137.151,159.603,137.044,159.298,137.133,158.925z"/>
		<path fill-rule="evenodd" clip-rule="evenodd" fill="#FCCB9A" d="M178.721,340.026c-2.181-2.046-2.032-4.979-2.793-7.543
			c-1.414-4.759-2.614-9.581-3.902-14.378c-0.444-0.895,0.136-1.521,0.663-2.046c8.024-7.974,15.741-16.26,24.14-23.862
			c0.313-0.145,0.639-0.238,0.979-0.296c1.071-0.122,2.104-0.089,2.925,0.752c-0.275,2.241-2.165,3.341-3.607,4.552
			c-6.67,5.594-10.974,12.371-12.618,21.082C183.118,325.642,180.091,332.625,178.721,340.026z"/>
		<path fill-rule="evenodd" clip-rule="evenodd" fill="#EDB17D" d="M197.482,292.622c-0.221,0.007-0.442,0.014-0.664,0.021
			c-3.602,1.695-7.354,0.96-11.075,0.699c-1.945-0.766-1.04-1.923-0.231-2.802c2.012-2.186,3.896-4.538,6.624-5.933l-0.001-0.009
			c2.919-0.427,5.839-0.854,8.758-1.28c-0.031,2.004-0.063,4.009-0.095,6.013C200.113,290.854,198.977,291.917,197.482,292.622z"/>
		<path fill-rule="evenodd" clip-rule="evenodd" fill="#FABB84" d="M197.482,292.622c0.859-1.346,1.931-2.476,3.315-3.29
			c-0.021,1.107-0.044,2.214-0.065,3.321C199.648,292.644,198.565,292.632,197.482,292.622z"/>
		<path fill-rule="evenodd" clip-rule="evenodd" fill="#E88749" d="M149.992,327.41c5.996-6.517,12.209-12.815,18.789-18.747
			c2.317,1.814,3.563,6.218,2.642,9.334c-1.293,1.878-2.891,3.453-4.751,4.767c-1.594-2.91-3.546-2.123-5.848-0.805
			C157.317,323.964,153.954,326.296,149.992,327.41z"/>
		<path fill-rule="evenodd" clip-rule="evenodd" fill="#EFC192" d="M171.422,317.997c-0.422-3.241-1.232-6.373-2.642-9.334
			c-0.003-0.441-0.007-0.883-0.011-1.324c1.53-0.043,2.242-1.297,3.141-2.206c4.09-4.142,8.132-8.33,12.192-12.501
			c0.224-0.213,0.451-0.217,0.684-0.013c4.011,0.009,8.021,0.017,12.032,0.024c-7.311,7.417-14.627,14.827-21.925,22.256
			c-1.003,1.022-1.914,2.135-2.868,3.206C171.824,318.069,171.623,318.033,171.422,317.997z"/>
		<path fill-rule="evenodd" clip-rule="evenodd" fill="#371C06" d="M138.004,291.291c3.254-3.189,7.115-5.812,9.312-9.987
			c0.446-0.017,0.893-0.033,1.338-0.049c2,1.236,5.642,0.511,6.249,2.383c0.942,2.913,0.259,6.351,0.266,9.565
			c-4.999,0.383-8.775,3.451-12.853,5.858c-0.942,0.557-1.882,1.117-2.823,1.677c-0.826-2.408-1.49-4.855-1.67-7.411
			C137.607,292.624,137.427,291.923,138.004,291.291z"/>
		<path fill-rule="evenodd" clip-rule="evenodd" fill="#C5BEBA" d="M138.004,291.291c-0.061,0.679-0.121,1.357-0.182,2.036
			c-1.25-1.088,0.007-2.896-1.153-4.009c-0.042-0.911,0.441-1.568,1.335-2.879C138.004,288.527,138.004,289.908,138.004,291.291z"/>
		<path fill-rule="evenodd" clip-rule="evenodd" fill="#EFC192" d="M167.371,249.85c3.602-4.407,7.964-8.077,11.844-12.214
			c0.89-0.947,2.184-1.641,2.215-3.193c0.292-0.409,0.713-0.618,1.173-0.77c2.331-0.573,4.646-1.145,6.588-2.715
			c1.971-1.596,3.312-3.445,3.008-6.132c-0.025-0.15-0.049-0.301-0.072-0.45c7.542-6.73,14.349-14.209,21.605-21.229
			c1.03-0.996,2.146-1.903,3.223-2.851c0.581-0.509,1.252-0.425,1.887-0.204c2.753,0.96,5.444,0.895,8.106-0.339
			c0.603-0.28,1.267-0.432,1.932-0.118c0.243,0.008,0.486,0.017,0.729,0.025c-0.808,0.91-1.571,1.864-2.431,2.725
			c-15.327,15.345-30.668,30.676-45.994,46.021c-0.858,0.858-1.618,1.815-2.423,2.728c-0.381,0.494-0.914,0.706-1.501,0.82
			c-3.29,0.336-6.509,0.038-9.631-1.109C167.267,250.586,167.182,250.253,167.371,249.85z"/>
		<path fill-rule="evenodd" clip-rule="evenodd" fill="#FBBB85" d="M184.786,292.619c-0.229,0.004-0.456,0.009-0.684,0.013
			c-8.852-1.535-17.562-3.537-25.589-7.786c-0.665-0.352-1.332-0.698-1.938-1.25c11.837,2.121,23.682,2.168,35.561,1.013
			C189.686,287.278,187.236,289.948,184.786,292.619z"/>
		<path fill-rule="evenodd" clip-rule="evenodd" fill="#F6955F" d="M177.407,251.238c0.451-0.035,0.902-0.068,1.354-0.104
			c8.005,0.497,15.384-2.311,22.967-4.533c-0.749,2.615-2.053,3.816-5.425,5.101c-4.906,1.869-10.045,2.495-15.238,2.755
			c-2.101,0.105-4.209,0.041-6.314,0.055c-1.137-0.199-2.418,0.361-3.399-0.65C173.157,252.498,175.832,253.137,177.407,251.238z"/>
		<path fill-rule="evenodd" clip-rule="evenodd" fill="#FBBC86" d="M173.078,258.949c3.393,1.224,6.632,1.609,9.996-0.635
			c-0.695,3.151-0.725,3.201-3.985,3.739C176.384,262.499,174.245,261.711,173.078,258.949z"/>
		<path fill-rule="evenodd" clip-rule="evenodd" fill="#3B2519" d="M216.884,199.651c-3.802-3.428-4.67-7.64-3.011-12.333
			c2.2-6.223,10.888-9.978,17.064-1.718c-0.02,0.228-0.038,0.454-0.057,0.682C226.667,191.212,222.564,196.258,216.884,199.651z"/>
		<path fill-rule="evenodd" clip-rule="evenodd" fill="#382318" d="M216.884,199.651c4.766-4.352,8.896-9.369,13.997-13.369
			c2.8,4.971,1.338,9.303-2.002,13.354c-3.827,2.882-7.827,2.655-11.925,0.661C216.89,200.086,216.866,199.87,216.884,199.651z"/>
		<path fill-rule="evenodd" clip-rule="evenodd" fill="#4C2D19" d="M221.735,158.92c4.025,0.39,7.79,0.66,11.249,2.433
			c1.726,0.884,3.229,2.008,4.186,3.688c1.342,2.355,0.361,3.917-2.363,3.783c-1.097-0.055-2.203-0.309-3.262-0.62
			c-7.266-2.133-14.445-2-21.576,0.63c-0.962,0.354-2.111,1.102-3.026-0.146c-0.727-0.991-0.581-2.062-0.202-3.174
			c0.912-2.673,3.043-4.011,5.453-4.995C215.331,159.241,218.691,159.219,221.735,158.92z"/>
		<path fill-rule="evenodd" clip-rule="evenodd" fill="#FBBB85" d="M182.774,234.427c-0.448,0.005-0.896,0.01-1.345,0.016
			c-4.875-0.008-9.826,0.53-14.229-2.412c-1.039-0.694-2.023-1.327-2.596-2.487c-0.825-1.671-2.296-3.764-1.057-5.127
			c0.966-1.062,3.042,0.544,4.456,1.329c7.317,4.064,14.492,3.216,21.64-0.438c0.782-0.399,1.653-0.625,2.481-0.932l0.012,0.023
			c0.428,1.041-0.308,1.681-0.897,2.271C188.532,229.378,186.071,232.36,182.774,234.427z"/>
		<path fill-rule="evenodd" clip-rule="evenodd" fill="#F6955F" d="M167.371,249.85c0.012,0.205,0.029,0.41,0.052,0.614
			c-0.66,1.13-1.813,1.756-2.708,2.646c-0.441,0.001-0.882,0.002-1.323,0.002c-2.165-1.323-4.878-1.513-6.839-3.207
			c-0.944-0.815-2.258-1.465-2.251-3.471C158.777,247.5,162.847,249.664,167.371,249.85z"/>
		<path fill-rule="evenodd" clip-rule="evenodd" fill="#EBA086" d="M119.234,237.761c5.064-5.613,10.405-10.952,16.018-16.019
			c-0.059,2.312,0.352,4.757-0.265,6.907c-1.88,6.566-7.934,10.195-14.431,9.159C120.125,237.739,119.676,237.774,119.234,237.761z"
			/>
		<path fill-rule="evenodd" clip-rule="evenodd" fill="#ABA097" d="M219.496,288.67c-1.319,2.056,0.212,4.628-1.207,6.666
			c0-2.9,0-5.801,0-8.702c0.138-0.053,0.276-0.104,0.414-0.158C218.968,287.207,219.231,287.938,219.496,288.67z"/>
		<path fill-rule="evenodd" clip-rule="evenodd" fill="#EA8E5B" d="M164.714,253.11c0.205-1.597,1.145-2.439,2.708-2.646
			c3.328,0.257,6.656,0.515,9.984,0.773c-0.801,3.685-3.806,2.282-6.056,2.624C169.086,254.067,166.906,253.543,164.714,253.11z"/>
		<path fill-rule="evenodd" clip-rule="evenodd" fill="#3B2519" d="M134.925,180.894c5.315,0.023,9.723,4.94,9.593,10.7
			c-0.129,5.724-4.432,10.257-9.706,10.226c-5.278-0.031-9.511-4.614-9.554-10.345C125.216,185.617,129.554,180.868,134.925,180.894
			z"/>
		<path fill-rule="evenodd" clip-rule="evenodd" fill="#492C19" d="M137.526,159.432c3.604-0.272,6.828,0.78,9.776,2.796
			c1.057,1.599,2.384,3.032,2.134,5.232c-0.197,1.73-0.661,2.241-2.509,1.68c-1.843-0.56-3.562-1.73-5.623-1.488
			c-3.941-1.45-8.009-0.756-12.039-0.719C130.118,163.164,134.554,159.136,137.526,159.432z"/>
		<path fill-rule="evenodd" clip-rule="evenodd" fill="#4D2E1A" d="M137.526,159.432c-1.446,0.021-2.446,0.263-3.348,1.858
			c-1.203,2.127-3.236,3.784-4.913,5.643c-0.226,0.204-0.453,0.407-0.679,0.61c-1.951,0.391-3.894,0.835-5.855,1.156
			c-1.411,0.23-3.082,0.632-3.907-0.938c-0.784-1.491,0.263-2.81,1.22-3.881c2.506-2.804,5.912-3.861,9.462-4.383
			c2.516-0.371,5.082-0.395,7.626-0.573C137.262,159.095,137.393,159.265,137.526,159.432z"/>
		<path fill-rule="evenodd" clip-rule="evenodd" fill="#EEB27E" d="M182.774,234.427c3.121-3.343,6.242-6.685,9.363-10.027
			c1.2,0.124,1.338,0.762,1.088,1.846c-0.915,3.977-3.728,6.067-7.262,7.426C184.953,234.059,183.841,234.182,182.774,234.427z"/>
		<path fill-rule="evenodd" clip-rule="evenodd" fill="#F6F5F4" d="M218.547,189.609c-1.767-0.257-2.841-1.197-2.865-2.815
			c-0.028-1.807,1.161-2.915,2.917-2.897c1.612,0.017,2.727,1.143,2.74,2.755C221.353,188.425,220.183,189.394,218.547,189.609z"/>
		<path fill-rule="evenodd" clip-rule="evenodd" fill="#F9F8F8" d="M130.62,183.889c1.483,0.13,2.65,0.789,2.79,2.521
			c0.147,1.843-0.835,2.99-2.607,3.112c-1.606,0.111-2.735-0.814-2.886-2.498C127.753,185.198,128.699,184.154,130.62,183.889z"/>
	</g>
</g>
<g id="Layer_2">
	<g>
		<circle fill="#334992" cx="122.566" cy="133.435" r="122.565"/>
		<path fill-rule="evenodd" clip-rule="evenodd" fill="#371C06" d="M50.646,138.656c0,0,3.643,53.706,18.638,74.117
			c-0.167-7.648,2.81-19.925,2.81-19.925s15.205,5.001,7.887,23.979c10.669-2.005,12.981-12.107,12.981-12.107
			s-2.704,6.82,5.977,20.131c8.681,13.312,42.237,24.504,47.252,9.571s6.94-29.556,6.94-29.556s1.141,10.187,12.985,11.758
			c-6.892-16.416,6.512-23.555,6.512-23.555s6.253,4.431,4.198,19.614c11.999-14.349,14.96-60.329,14.96-60.329l-18.374-97.397
			L59.328,63.479L50.646,138.656z"/>
		<path fill-rule="evenodd" clip-rule="evenodd" fill="#371C06" d="M172.626,36.158c-0.176,17.412-20.941,26.157-45.629,26.157
			c-24.687,0-44.699-14.117-44.699-31.532C82.298,13.369,102.31,0,126.997,0C151.685,0,172.857,13.351,172.626,36.158z"/>
		<path fill-rule="evenodd" clip-rule="evenodd" fill="#FCCB9A" d="M105.176,199.33c2.712,8.934-1.261,52.141-1.261,52.141
			l37.752,0.498c0,0-2.011-52.818-1.228-54.45C141.224,195.888,102.464,190.395,105.176,199.33z"/>
		<path fill-rule="evenodd" clip-rule="evenodd" fill="#FBBB85" d="M140.439,197.519c0.784-1.631-37.976-7.124-35.264,1.812
			c0.18,0.593,0.33,1.342,0.454,2.213c11.463,7.737,25.649,8.663,34.727,8.259C140.221,203.01,140.208,198.005,140.439,197.519z"/>
		<path fill-rule="evenodd" clip-rule="evenodd" fill="#FCCB9A" d="M187.004,138.656c0,40.602-25.334,66.592-63.629,66.592
			c-38.297,0-64.047-28.1-64.047-68.702c0-40.603,25.75-78.333,64.047-78.333C161.669,58.213,187.004,98.053,187.004,138.656z"/>
		<path fill-rule="evenodd" clip-rule="evenodd" fill="#4C2D19" d="M198.199,167.973c0.872-9.522,14.963-25.793,12.203-60.906
			c0.032-4.374-0.263-8.796-0.917-13.245c-7.263-49.399-40.226-72.598-90.239-72.598c-50.013,0-83.773,36.94-83.773,86.87
			c0,1.963,0.07,3.914,0.173,5.858l-0.396,0.401c0,0,0.694,26.277,4.018,35.854c3.327,9.578,20.786,45.547,3.68,63.276
			c5.734-2.161,26.718-7.057,18.191-50.693c0,0,10.555,12.484,20.736,13.025c-23.53-22.903-14.457-57.667-7.344-65.111
			c3.42-3.579,3.753-9.042,38.462-11.203c39.549-6.017,47.354-11.855,47.354-11.855s25.26,34.477,13.062,90.619
			c6.587-6.255,15.748-20.752,15.748-20.752s-11.201,28.458,13.133,55.327C194.445,176.602,197.312,177.624,198.199,167.973z"/>
		<path fill-rule="evenodd" clip-rule="evenodd" fill="#482B18" d="M144.238,49.441c-39.348,24.49-79.391,35.597-79.391,35.597
			s12.583,6.404,45.242-9.386C142.75,59.864,144.238,49.441,144.238,49.441z"/>
		<path fill-rule="evenodd" clip-rule="evenodd" fill="#482B18" d="M119.693,41.239C95.83,57.428,71.547,64.77,71.547,64.77
			s7.63,4.235,27.436-6.204C118.79,48.127,119.693,41.239,119.693,41.239z"/>
		<g>
			<defs>
				<circle id="SVGID_1_" cx="122.566" cy="133.435" r="122.565"/>
			</defs>
			<clipPath id="SVGID_2_">
				<use xlink:href="#SVGID_1_"  overflow="visible"/>
			</clipPath>
			<path clip-path="url(#SVGID_2_)" fill-rule="evenodd" clip-rule="evenodd" d="M105.987,209.931c0,0,3.52,15.248,17.511,15.19
				c13.992-0.058,16.858-15.568,16.858-15.568s37.854,17.335,47.845,28.133c9.991,10.797,9.994,18.545,9.994,18.545H47.806
				c0,0-1.832-10.625,17.213-24.089C84.064,218.679,105.987,209.931,105.987,209.931z"/>
		</g>
		<path fill-rule="evenodd" clip-rule="evenodd" fill="#2F2D2E" d="M105.987,210.181c0,0-1.635,0.654-4.387,1.87
			c2.021,10.148,10.974,17.799,21.716,17.799c10.755,0,19.718-7.671,21.722-17.839c-2.896-1.39-4.681-2.209-4.681-2.209
			s-2.866,15.512-16.858,15.57C109.506,225.429,105.987,210.181,105.987,210.181z"/>
		<path fill="#4C2D19" d="M98.25,131.864c-0.079-0.127-8.006-12.595-22.783-5.158c-1.286,0.648-3.712,1.272-5.502-1.8
			c-0.518-0.893-1.661-1.191-2.55-0.672c-0.892,0.52-1.193,1.659-0.673,2.552c2.821,4.842,7.366,4.779,10.4,3.25
			c0.921-0.461,1.806-0.827,2.655-1.112c0.223-0.077,0.356,0.138,0.218,0.324c-0.747,1.003-1.191,2.246-1.192,3.593
			c0,3.34,2.708,6.05,6.049,6.05c3.341,0,6.05-2.707,6.05-6.05c0-1.179-0.344-2.279-0.931-3.212
			c-0.083-0.131,0.054-0.23,0.209-0.148c3.111,1.627,4.743,4.135,4.877,4.347c0.353,0.568,0.962,0.88,1.587,0.88
			c0.333,0,0.673-0.09,0.978-0.277C98.521,133.89,98.794,132.741,98.25,131.864z"/>
		<path fill="#4C2D19" d="M142.212,131.864c0.077-0.127,8.004-12.595,22.781-5.158c1.287,0.648,3.713,1.272,5.503-1.8
			c0.52-0.893,1.661-1.191,2.55-0.672c0.891,0.52,1.19,1.659,0.673,2.552c-2.822,4.842-7.368,4.779-10.4,3.25
			c-0.923-0.461-1.808-0.827-2.658-1.112c-0.221-0.077-0.356,0.138-0.216,0.324c0.748,1.003,1.19,2.246,1.19,3.593
			c0,3.34-2.707,6.05-6.048,6.05c-3.344,0-6.049-2.707-6.049-6.05c0-1.179,0.343-2.279,0.93-3.212
			c0.083-0.131-0.055-0.23-0.209-0.148c-3.114,1.627-4.742,4.135-4.878,4.347c-0.353,0.568-0.962,0.88-1.586,0.88
			c-0.333,0-0.67-0.09-0.978-0.277C141.939,133.89,141.67,132.741,142.212,131.864z"/>
		<path fill="#F6955F" d="M135.405,177.821c-0.704,2.952-8.695,5.379-13.4,5.379c-4.917,0-12.723-2.424-13.399-5.379
			c-1.385-6.052,9.481-1.792,13.399-1.792C125.532,176.029,136.817,171.917,135.405,177.821z"/>
		<path fill="#4C2D19" d="M99.93,111.634c3.085,1.83,1.624,6.195,1.624,6.195c-11.46-6.898-21.163,0.643-22.966-2.048
			c-1.801-2.691,5.008-6.47,10.942-6.275C95.463,109.702,96.845,109.802,99.93,111.634z"/>
		<path fill="#4C2D19" d="M146.517,111.242c-3.147,1.723-1.836,6.135-1.836,6.135c11.69-6.499,21.129,1.374,23.021-1.255
			c1.895-2.628-4.779-6.64-10.717-6.648C151.046,109.466,149.663,109.519,146.517,111.242z"/>
		<path fill-rule="evenodd" clip-rule="evenodd" fill="#FBBC86" d="M119.246,188.305c2.544-0.918,4.97-1.207,7.49,0.476
			c-0.519-2.362-0.542-2.398-2.984-2.803C121.724,185.645,120.122,186.236,119.246,188.305z"/>
		<path fill-rule="evenodd" clip-rule="evenodd" fill="#FBBC86" d="M117.504,153.62c0,0-2.873,0.75-2.373,4.497
			c0.5,3.748,6.504,8.495,6.875,4.497C116.248,160.788,117.504,153.62,117.504,153.62z"/>
	</g>
</g>
</svg>
